G04 #@! TF.GenerationSoftware,KiCad,Pcbnew,(6.0.1)*
G04 #@! TF.CreationDate,2022-06-04T21:41:08-05:00*
G04 #@! TF.ProjectId,Bsides-KC-2021-SAO-BP,42736964-6573-42d4-9b43-2d323032312d,rev?*
G04 #@! TF.SameCoordinates,Original*
G04 #@! TF.FileFunction,Profile,NP*
%FSLAX46Y46*%
G04 Gerber Fmt 4.6, Leading zero omitted, Abs format (unit mm)*
G04 Created by KiCad (PCBNEW (6.0.1)) date 2022-06-04 21:41:08*
%MOMM*%
%LPD*%
G01*
G04 APERTURE LIST*
G04 #@! TA.AperFunction,Profile*
%ADD10C,0.150000*%
G04 #@! TD*
G04 APERTURE END LIST*
D10*
X168262300Y-112420400D02*
X169684700Y-115036600D01*
X159448500Y-106324400D02*
X161607500Y-107137200D01*
X142227300Y-127152400D02*
X140931900Y-125704600D01*
X152590500Y-105511600D02*
X154292300Y-105511600D01*
X141668500Y-109956600D02*
X142938500Y-108864400D01*
X170446700Y-120777000D02*
X169989500Y-122148600D01*
X165036500Y-127812800D02*
X164503100Y-129235200D01*
X137528300Y-117957600D02*
X137680700Y-116433600D01*
X144640300Y-107772200D02*
X147408900Y-106629200D01*
X147408900Y-106629200D02*
X150050500Y-105867200D01*
X166027100Y-126288800D02*
X165036500Y-127812800D01*
X143776700Y-134315200D02*
X143649700Y-132613400D01*
X164147500Y-134543800D02*
X163512500Y-135356600D01*
X163512500Y-135356600D02*
X161861500Y-136245600D01*
X158965900Y-137642600D02*
X156375100Y-138150600D01*
X164503100Y-129235200D02*
X164299900Y-130886200D01*
X154292300Y-105511600D02*
X156984700Y-105816400D01*
X143522700Y-130073400D02*
X143167100Y-128447800D01*
X143167100Y-128447800D02*
X142227300Y-127152400D01*
X148323300Y-137490200D02*
X147205700Y-136982200D01*
X164223700Y-132054600D02*
X164198300Y-133375400D01*
X163944300Y-108254800D02*
X165392100Y-109448600D01*
X169684700Y-115036600D02*
X170395900Y-117373400D01*
X137680700Y-116433600D02*
X138239500Y-114757200D01*
X164299900Y-130886200D02*
X164223700Y-132054600D01*
X166433500Y-110363000D02*
X168262300Y-112420400D01*
X143649700Y-132613400D02*
X143522700Y-130073400D01*
X161607500Y-107137200D02*
X163944300Y-108254800D01*
X169989500Y-122148600D02*
X169151300Y-123037600D01*
X138290300Y-122250200D02*
X137528300Y-119989600D01*
X139839700Y-124409200D02*
X139128500Y-123469400D01*
X156375100Y-138150600D02*
X155181300Y-138277600D01*
X170573700Y-119634000D02*
X170446700Y-120777000D01*
X150050500Y-105867200D02*
X152590500Y-105511600D01*
X161861500Y-136245600D02*
X158965900Y-137642600D01*
X149948900Y-137947400D02*
X148323300Y-137490200D01*
X167068500Y-125196600D02*
X166027100Y-126288800D01*
X153428700Y-138379200D02*
X151803100Y-138226800D01*
X140347700Y-111379000D02*
X141668500Y-109956600D01*
X138239500Y-114757200D02*
X139230100Y-112826800D01*
X144640300Y-135585200D02*
X144056100Y-135051800D01*
X147205700Y-136982200D02*
X145910300Y-136372600D01*
X139230100Y-112826800D02*
X140347700Y-111379000D01*
X137528300Y-119989600D02*
X137528300Y-117957600D01*
X156984700Y-105816400D02*
X159448500Y-106324400D01*
X170395900Y-117373400D02*
X170573700Y-119634000D01*
X144056100Y-135051800D02*
X143776700Y-134315200D01*
X155181300Y-138277600D02*
X153428700Y-138379200D01*
X169151300Y-123037600D02*
X168160700Y-124002800D01*
X165392100Y-109448600D02*
X166433500Y-110363000D01*
X145910300Y-136372600D02*
X144640300Y-135585200D01*
X164198300Y-133375400D02*
X164147500Y-134543800D01*
X142938500Y-108864400D02*
X144640300Y-107772200D01*
X151803100Y-138226800D02*
X149948900Y-137947400D01*
X168160700Y-124002800D02*
X167068500Y-125196600D01*
X140931900Y-125704600D02*
X139865100Y-124434600D01*
X139128500Y-123469400D02*
X138290300Y-122250200D01*
M02*
