G04 #@! TF.GenerationSoftware,KiCad,Pcbnew,(6.0.1)*
G04 #@! TF.CreationDate,2022-06-04T21:41:08-05:00*
G04 #@! TF.ProjectId,Bsides-KC-2021-SAO-BP,42736964-6573-42d4-9b43-2d323032312d,rev?*
G04 #@! TF.SameCoordinates,Original*
G04 #@! TF.FileFunction,Legend,Bot*
G04 #@! TF.FilePolarity,Positive*
%FSLAX46Y46*%
G04 Gerber Fmt 4.6, Leading zero omitted, Abs format (unit mm)*
G04 Created by KiCad (PCBNEW (6.0.1)) date 2022-06-04 21:41:08*
%MOMM*%
%LPD*%
G01*
G04 APERTURE LIST*
%ADD10C,0.150000*%
%ADD11C,0.120000*%
%ADD12C,0.500000*%
%ADD13C,0.010000*%
G04 APERTURE END LIST*
D10*
G04 #@! TO.C,D1*
X147391380Y-115042904D02*
X146391380Y-115042904D01*
X146391380Y-115281000D01*
X146439000Y-115423857D01*
X146534238Y-115519095D01*
X146629476Y-115566714D01*
X146819952Y-115614333D01*
X146962809Y-115614333D01*
X147153285Y-115566714D01*
X147248523Y-115519095D01*
X147343761Y-115423857D01*
X147391380Y-115281000D01*
X147391380Y-115042904D01*
X147391380Y-116566714D02*
X147391380Y-115995285D01*
X147391380Y-116281000D02*
X146391380Y-116281000D01*
X146534238Y-116185761D01*
X146629476Y-116090523D01*
X146677095Y-115995285D01*
G04 #@! TO.C,X1*
X158346861Y-136645961D02*
X158251623Y-136693580D01*
X158061147Y-136693580D01*
X157965909Y-136645961D01*
X157918290Y-136550723D01*
X157918290Y-136503104D01*
X157965909Y-136407866D01*
X158061147Y-136360247D01*
X158204004Y-136360247D01*
X158299242Y-136312628D01*
X158346861Y-136217390D01*
X158346861Y-136169771D01*
X158299242Y-136074533D01*
X158204004Y-136026914D01*
X158061147Y-136026914D01*
X157965909Y-136074533D01*
X157061147Y-136693580D02*
X157061147Y-136169771D01*
X157108766Y-136074533D01*
X157204004Y-136026914D01*
X157394480Y-136026914D01*
X157489719Y-136074533D01*
X157061147Y-136645961D02*
X157156385Y-136693580D01*
X157394480Y-136693580D01*
X157489719Y-136645961D01*
X157537338Y-136550723D01*
X157537338Y-136455485D01*
X157489719Y-136360247D01*
X157394480Y-136312628D01*
X157156385Y-136312628D01*
X157061147Y-136265009D01*
X156442100Y-136693580D02*
X156537338Y-136645961D01*
X156584957Y-136598342D01*
X156632576Y-136503104D01*
X156632576Y-136217390D01*
X156584957Y-136122152D01*
X156537338Y-136074533D01*
X156442100Y-136026914D01*
X156299242Y-136026914D01*
X156204004Y-136074533D01*
X156156385Y-136122152D01*
X156108766Y-136217390D01*
X156108766Y-136503104D01*
X156156385Y-136598342D01*
X156204004Y-136645961D01*
X156299242Y-136693580D01*
X156442100Y-136693580D01*
X155918290Y-136788819D02*
X155156385Y-136788819D01*
X155013528Y-136026914D02*
X154775433Y-136693580D01*
X154537338Y-136026914D01*
X153632576Y-136693580D02*
X154204004Y-136693580D01*
X153918290Y-136693580D02*
X153918290Y-135693580D01*
X154013528Y-135836438D01*
X154108766Y-135931676D01*
X154204004Y-135979295D01*
X152775433Y-135693580D02*
X152965909Y-135693580D01*
X153061147Y-135741200D01*
X153108766Y-135788819D01*
X153204004Y-135931676D01*
X153251623Y-136122152D01*
X153251623Y-136503104D01*
X153204004Y-136598342D01*
X153156385Y-136645961D01*
X153061147Y-136693580D01*
X152870671Y-136693580D01*
X152775433Y-136645961D01*
X152727814Y-136598342D01*
X152680195Y-136503104D01*
X152680195Y-136265009D01*
X152727814Y-136169771D01*
X152775433Y-136122152D01*
X152870671Y-136074533D01*
X153061147Y-136074533D01*
X153156385Y-136122152D01*
X153204004Y-136169771D01*
X153251623Y-136265009D01*
X152204004Y-136693580D02*
X152013528Y-136693580D01*
X151918290Y-136645961D01*
X151870671Y-136598342D01*
X151775433Y-136455485D01*
X151727814Y-136265009D01*
X151727814Y-135884057D01*
X151775433Y-135788819D01*
X151823052Y-135741200D01*
X151918290Y-135693580D01*
X152108766Y-135693580D01*
X152204004Y-135741200D01*
X152251623Y-135788819D01*
X152299242Y-135884057D01*
X152299242Y-136122152D01*
X152251623Y-136217390D01*
X152204004Y-136265009D01*
X152108766Y-136312628D01*
X151918290Y-136312628D01*
X151823052Y-136265009D01*
X151775433Y-136217390D01*
X151727814Y-136122152D01*
X151299242Y-136693580D02*
X151299242Y-135693580D01*
X151299242Y-136074533D02*
X151204004Y-136026914D01*
X151013528Y-136026914D01*
X150918290Y-136074533D01*
X150870671Y-136122152D01*
X150823052Y-136217390D01*
X150823052Y-136503104D01*
X150870671Y-136598342D01*
X150918290Y-136645961D01*
X151013528Y-136693580D01*
X151204004Y-136693580D01*
X151299242Y-136645961D01*
X150394480Y-136693580D02*
X150394480Y-136026914D01*
X150394480Y-135693580D02*
X150442100Y-135741200D01*
X150394480Y-135788819D01*
X150346861Y-135741200D01*
X150394480Y-135693580D01*
X150394480Y-135788819D01*
X149965909Y-136645961D02*
X149870671Y-136693580D01*
X149680195Y-136693580D01*
X149584957Y-136645961D01*
X149537338Y-136550723D01*
X149537338Y-136503104D01*
X149584957Y-136407866D01*
X149680195Y-136360247D01*
X149823052Y-136360247D01*
X149918290Y-136312628D01*
X149965909Y-136217390D01*
X149965909Y-136169771D01*
X149918290Y-136074533D01*
X149823052Y-136026914D01*
X149680195Y-136026914D01*
X149584957Y-136074533D01*
X152066500Y-127986285D02*
X151816500Y-128736285D01*
X151566500Y-127986285D01*
X150887928Y-128664857D02*
X150923642Y-128700571D01*
X151030785Y-128736285D01*
X151102214Y-128736285D01*
X151209357Y-128700571D01*
X151280785Y-128629142D01*
X151316500Y-128557714D01*
X151352214Y-128414857D01*
X151352214Y-128307714D01*
X151316500Y-128164857D01*
X151280785Y-128093428D01*
X151209357Y-128022000D01*
X151102214Y-127986285D01*
X151030785Y-127986285D01*
X150923642Y-128022000D01*
X150887928Y-128057714D01*
X150137928Y-128664857D02*
X150173642Y-128700571D01*
X150280785Y-128736285D01*
X150352214Y-128736285D01*
X150459357Y-128700571D01*
X150530785Y-128629142D01*
X150566500Y-128557714D01*
X150602214Y-128414857D01*
X150602214Y-128307714D01*
X150566500Y-128164857D01*
X150530785Y-128093428D01*
X150459357Y-128022000D01*
X150352214Y-127986285D01*
X150280785Y-127986285D01*
X150173642Y-128022000D01*
X150137928Y-128057714D01*
X151688728Y-133660800D02*
X151760157Y-133625085D01*
X151867300Y-133625085D01*
X151974442Y-133660800D01*
X152045871Y-133732228D01*
X152081585Y-133803657D01*
X152117300Y-133946514D01*
X152117300Y-134053657D01*
X152081585Y-134196514D01*
X152045871Y-134267942D01*
X151974442Y-134339371D01*
X151867300Y-134375085D01*
X151795871Y-134375085D01*
X151688728Y-134339371D01*
X151653014Y-134303657D01*
X151653014Y-134053657D01*
X151795871Y-134053657D01*
X151331585Y-134375085D02*
X151331585Y-133625085D01*
X150903014Y-134375085D01*
X150903014Y-133625085D01*
X150545871Y-134375085D02*
X150545871Y-133625085D01*
X150367300Y-133625085D01*
X150260157Y-133660800D01*
X150188728Y-133732228D01*
X150153014Y-133803657D01*
X150117300Y-133946514D01*
X150117300Y-134053657D01*
X150153014Y-134196514D01*
X150188728Y-134267942D01*
X150260157Y-134339371D01*
X150367300Y-134375085D01*
X150545871Y-134375085D01*
X158828442Y-133635400D02*
X158899871Y-133599685D01*
X159007014Y-133599685D01*
X159114157Y-133635400D01*
X159185585Y-133706828D01*
X159221300Y-133778257D01*
X159257014Y-133921114D01*
X159257014Y-134028257D01*
X159221300Y-134171114D01*
X159185585Y-134242542D01*
X159114157Y-134313971D01*
X159007014Y-134349685D01*
X158935585Y-134349685D01*
X158828442Y-134313971D01*
X158792728Y-134278257D01*
X158792728Y-134028257D01*
X158935585Y-134028257D01*
X158471300Y-134349685D02*
X158471300Y-133599685D01*
X158185585Y-133599685D01*
X158114157Y-133635400D01*
X158078442Y-133671114D01*
X158042728Y-133742542D01*
X158042728Y-133849685D01*
X158078442Y-133921114D01*
X158114157Y-133956828D01*
X158185585Y-133992542D01*
X158471300Y-133992542D01*
X157721300Y-134349685D02*
X157721300Y-133599685D01*
X157221300Y-133599685D02*
X157078442Y-133599685D01*
X157007014Y-133635400D01*
X156935585Y-133706828D01*
X156899871Y-133849685D01*
X156899871Y-134099685D01*
X156935585Y-134242542D01*
X157007014Y-134313971D01*
X157078442Y-134349685D01*
X157221300Y-134349685D01*
X157292728Y-134313971D01*
X157364157Y-134242542D01*
X157399871Y-134099685D01*
X157399871Y-133849685D01*
X157364157Y-133706828D01*
X157292728Y-133635400D01*
X157221300Y-133599685D01*
X156614157Y-133671114D02*
X156578442Y-133635400D01*
X156507014Y-133599685D01*
X156328442Y-133599685D01*
X156257014Y-133635400D01*
X156221300Y-133671114D01*
X156185585Y-133742542D01*
X156185585Y-133813971D01*
X156221300Y-133921114D01*
X156649871Y-134349685D01*
X156185585Y-134349685D01*
X154771214Y-128675171D02*
X154664071Y-128710885D01*
X154485500Y-128710885D01*
X154414071Y-128675171D01*
X154378357Y-128639457D01*
X154342642Y-128568028D01*
X154342642Y-128496600D01*
X154378357Y-128425171D01*
X154414071Y-128389457D01*
X154485500Y-128353742D01*
X154628357Y-128318028D01*
X154699785Y-128282314D01*
X154735500Y-128246600D01*
X154771214Y-128175171D01*
X154771214Y-128103742D01*
X154735500Y-128032314D01*
X154699785Y-127996600D01*
X154628357Y-127960885D01*
X154449785Y-127960885D01*
X154342642Y-127996600D01*
X154021214Y-128710885D02*
X154021214Y-127960885D01*
X153842642Y-127960885D01*
X153735500Y-127996600D01*
X153664071Y-128068028D01*
X153628357Y-128139457D01*
X153592642Y-128282314D01*
X153592642Y-128389457D01*
X153628357Y-128532314D01*
X153664071Y-128603742D01*
X153735500Y-128675171D01*
X153842642Y-128710885D01*
X154021214Y-128710885D01*
X153306928Y-128496600D02*
X152949785Y-128496600D01*
X153378357Y-128710885D02*
X153128357Y-127960885D01*
X152878357Y-128710885D01*
X158650642Y-127996600D02*
X158722071Y-127960885D01*
X158829214Y-127960885D01*
X158936357Y-127996600D01*
X159007785Y-128068028D01*
X159043500Y-128139457D01*
X159079214Y-128282314D01*
X159079214Y-128389457D01*
X159043500Y-128532314D01*
X159007785Y-128603742D01*
X158936357Y-128675171D01*
X158829214Y-128710885D01*
X158757785Y-128710885D01*
X158650642Y-128675171D01*
X158614928Y-128639457D01*
X158614928Y-128389457D01*
X158757785Y-128389457D01*
X158293500Y-128710885D02*
X158293500Y-127960885D01*
X158007785Y-127960885D01*
X157936357Y-127996600D01*
X157900642Y-128032314D01*
X157864928Y-128103742D01*
X157864928Y-128210885D01*
X157900642Y-128282314D01*
X157936357Y-128318028D01*
X158007785Y-128353742D01*
X158293500Y-128353742D01*
X157543500Y-128710885D02*
X157543500Y-127960885D01*
X157043500Y-127960885D02*
X156900642Y-127960885D01*
X156829214Y-127996600D01*
X156757785Y-128068028D01*
X156722071Y-128210885D01*
X156722071Y-128460885D01*
X156757785Y-128603742D01*
X156829214Y-128675171D01*
X156900642Y-128710885D01*
X157043500Y-128710885D01*
X157114928Y-128675171D01*
X157186357Y-128603742D01*
X157222071Y-128460885D01*
X157222071Y-128210885D01*
X157186357Y-128068028D01*
X157114928Y-127996600D01*
X157043500Y-127960885D01*
X156007785Y-128710885D02*
X156436357Y-128710885D01*
X156222071Y-128710885D02*
X156222071Y-127960885D01*
X156293500Y-128068028D01*
X156364928Y-128139457D01*
X156436357Y-128175171D01*
X154499357Y-134339371D02*
X154392214Y-134375085D01*
X154213642Y-134375085D01*
X154142214Y-134339371D01*
X154106500Y-134303657D01*
X154070785Y-134232228D01*
X154070785Y-134160800D01*
X154106500Y-134089371D01*
X154142214Y-134053657D01*
X154213642Y-134017942D01*
X154356500Y-133982228D01*
X154427928Y-133946514D01*
X154463642Y-133910800D01*
X154499357Y-133839371D01*
X154499357Y-133767942D01*
X154463642Y-133696514D01*
X154427928Y-133660800D01*
X154356500Y-133625085D01*
X154177928Y-133625085D01*
X154070785Y-133660800D01*
X153320785Y-134303657D02*
X153356500Y-134339371D01*
X153463642Y-134375085D01*
X153535071Y-134375085D01*
X153642214Y-134339371D01*
X153713642Y-134267942D01*
X153749357Y-134196514D01*
X153785071Y-134053657D01*
X153785071Y-133946514D01*
X153749357Y-133803657D01*
X153713642Y-133732228D01*
X153642214Y-133660800D01*
X153535071Y-133625085D01*
X153463642Y-133625085D01*
X153356500Y-133660800D01*
X153320785Y-133696514D01*
X152642214Y-134375085D02*
X152999357Y-134375085D01*
X152999357Y-133625085D01*
D11*
G04 #@! TO.C,D1*
X149961600Y-121470600D02*
X148793200Y-121470600D01*
X149785400Y-122283400D02*
X149785400Y-121800800D01*
X148844000Y-119972000D02*
X149910800Y-119972000D01*
X149352000Y-121470600D02*
X148844000Y-119972000D01*
X149885400Y-119527500D02*
X149885400Y-119044900D01*
X149352000Y-121470600D02*
X149352000Y-122080200D01*
X149377400Y-119946600D02*
X149377400Y-119235400D01*
X149910800Y-119972000D02*
X149377400Y-121445200D01*
X150139400Y-119286200D02*
X149631400Y-119286200D01*
X146039000Y-122607000D02*
X146039000Y-121657000D01*
X147816765Y-121675658D02*
G75*
G03*
X147839000Y-119557000I-877764J1068658D01*
G01*
X146061235Y-119538342D02*
G75*
G03*
X146039000Y-121657000I877764J-1068658D01*
G01*
D12*
G04 #@! TO.C,X1*
X151726900Y-127381000D02*
X156044900Y-127381000D01*
X151726900Y-127000000D02*
X151726900Y-127508000D01*
X156044900Y-127000000D02*
X151726900Y-127000000D01*
X147281900Y-134747000D02*
X160616900Y-134747000D01*
X160489900Y-127635000D02*
X147281900Y-127635000D01*
X160616900Y-134747000D02*
X160616900Y-127635000D01*
X147281900Y-127635000D02*
X147281900Y-134747000D01*
X156044900Y-127508000D02*
X156044900Y-127000000D01*
X147011900Y-125923800D02*
G75*
G03*
X147011900Y-125923800I-1000000J0D01*
G01*
D13*
G04 #@! TO.C,G\u002A\u002A\u002A*
X160323972Y-110168600D02*
X160249947Y-110578483D01*
X160249947Y-110578483D02*
X160150358Y-111349204D01*
X160150358Y-111349204D02*
X160037683Y-112407109D01*
X160037683Y-112407109D02*
X160017094Y-113048095D01*
X160017094Y-113048095D02*
X160088041Y-113313621D01*
X160088041Y-113313621D02*
X160124111Y-113326333D01*
X160124111Y-113326333D02*
X160200884Y-113093695D01*
X160200884Y-113093695D02*
X160243838Y-112761888D01*
X160243838Y-112761888D02*
X160345104Y-112303364D01*
X160345104Y-112303364D02*
X160438367Y-112197444D01*
X160438367Y-112197444D02*
X160573106Y-112434754D01*
X160573106Y-112434754D02*
X160624024Y-112761888D01*
X160624024Y-112761888D02*
X160691470Y-113177198D01*
X160691470Y-113177198D02*
X160780999Y-113339689D01*
X160780999Y-113339689D02*
X160836898Y-113167345D01*
X160836898Y-113167345D02*
X160839150Y-113078577D01*
X160839150Y-113078577D02*
X160799977Y-112508283D01*
X160799977Y-112508283D02*
X160703892Y-111707293D01*
X160703892Y-111707293D02*
X160680101Y-111550739D01*
X160680101Y-111550739D02*
X160489359Y-111550739D01*
X160489359Y-111550739D02*
X160478573Y-111652501D01*
X160478573Y-111652501D02*
X160401948Y-111902748D01*
X160401948Y-111902748D02*
X160364453Y-111617723D01*
X160364453Y-111617723D02*
X160362900Y-111475232D01*
X160362900Y-111475232D02*
X160401953Y-111184557D01*
X160401953Y-111184557D02*
X160443570Y-111212511D01*
X160443570Y-111212511D02*
X160489359Y-111550739D01*
X160489359Y-111550739D02*
X160680101Y-111550739D01*
X160680101Y-111550739D02*
X160583052Y-110912150D01*
X160583052Y-110912150D02*
X160469610Y-110359397D01*
X160469610Y-110359397D02*
X160469428Y-110358747D01*
X160469428Y-110358747D02*
X160388313Y-110122730D01*
X160388313Y-110122730D02*
X160323972Y-110168600D01*
X160323972Y-110168600D02*
X160323972Y-110168600D01*
G36*
X160799977Y-112508283D02*
G01*
X160839150Y-113078577D01*
X160836898Y-113167345D01*
X160780999Y-113339689D01*
X160691470Y-113177198D01*
X160624024Y-112761888D01*
X160573106Y-112434754D01*
X160438367Y-112197444D01*
X160345104Y-112303364D01*
X160243838Y-112761888D01*
X160200884Y-113093695D01*
X160124111Y-113326333D01*
X160088041Y-113313621D01*
X160017094Y-113048095D01*
X160037683Y-112407109D01*
X160136935Y-111475232D01*
X160362900Y-111475232D01*
X160364453Y-111617723D01*
X160401948Y-111902748D01*
X160478573Y-111652501D01*
X160489359Y-111550739D01*
X160443570Y-111212511D01*
X160401953Y-111184557D01*
X160362900Y-111475232D01*
X160136935Y-111475232D01*
X160150358Y-111349204D01*
X160249947Y-110578483D01*
X160323972Y-110168600D01*
X160388313Y-110122730D01*
X160469428Y-110358747D01*
X160469610Y-110359397D01*
X160583052Y-110912150D01*
X160680101Y-111550739D01*
X160703892Y-111707293D01*
X160799977Y-112508283D01*
G37*
X160799977Y-112508283D02*
X160839150Y-113078577D01*
X160836898Y-113167345D01*
X160780999Y-113339689D01*
X160691470Y-113177198D01*
X160624024Y-112761888D01*
X160573106Y-112434754D01*
X160438367Y-112197444D01*
X160345104Y-112303364D01*
X160243838Y-112761888D01*
X160200884Y-113093695D01*
X160124111Y-113326333D01*
X160088041Y-113313621D01*
X160017094Y-113048095D01*
X160037683Y-112407109D01*
X160136935Y-111475232D01*
X160362900Y-111475232D01*
X160364453Y-111617723D01*
X160401948Y-111902748D01*
X160478573Y-111652501D01*
X160489359Y-111550739D01*
X160443570Y-111212511D01*
X160401953Y-111184557D01*
X160362900Y-111475232D01*
X160136935Y-111475232D01*
X160150358Y-111349204D01*
X160249947Y-110578483D01*
X160323972Y-110168600D01*
X160388313Y-110122730D01*
X160469428Y-110358747D01*
X160469610Y-110359397D01*
X160583052Y-110912150D01*
X160680101Y-111550739D01*
X160703892Y-111707293D01*
X160799977Y-112508283D01*
X150769780Y-109996109D02*
X150533602Y-110100583D01*
X150533602Y-110100583D02*
X150414587Y-110316683D01*
X150414587Y-110316683D02*
X150374504Y-110645222D01*
X150374504Y-110645222D02*
X150369870Y-111021048D01*
X150369870Y-111021048D02*
X150432383Y-110913055D01*
X150432383Y-110913055D02*
X150449196Y-110856888D01*
X150449196Y-110856888D02*
X150597920Y-110559846D01*
X150597920Y-110559846D02*
X150746670Y-110540885D01*
X150746670Y-110540885D02*
X150833248Y-110792683D01*
X150833248Y-110792683D02*
X150837900Y-110902637D01*
X150837900Y-110902637D02*
X150762814Y-111222195D01*
X150762814Y-111222195D02*
X150554416Y-111472114D01*
X150554416Y-111472114D02*
X150500557Y-111508765D01*
X150500557Y-111508765D02*
X150320053Y-111655888D01*
X150320053Y-111655888D02*
X150248340Y-111791350D01*
X150248340Y-111791350D02*
X150262432Y-111839312D01*
X150262432Y-111839312D02*
X150342738Y-112189043D01*
X150342738Y-112189043D02*
X150356474Y-112770772D01*
X150356474Y-112770772D02*
X150306939Y-113309663D01*
X150306939Y-113309663D02*
X150242411Y-113506738D01*
X150242411Y-113506738D02*
X150037372Y-113570305D01*
X150037372Y-113570305D02*
X149830482Y-113333337D01*
X149830482Y-113333337D02*
X149696977Y-112887145D01*
X149696977Y-112887145D02*
X149690861Y-112837351D01*
X149690861Y-112837351D02*
X149705715Y-112276410D01*
X149705715Y-112276410D02*
X149821012Y-111847237D01*
X149821012Y-111847237D02*
X150035760Y-111255848D01*
X150035760Y-111255848D02*
X150145170Y-110892985D01*
X150145170Y-110892985D02*
X150170676Y-110647426D01*
X150170676Y-110647426D02*
X150133710Y-110407945D01*
X150133710Y-110407945D02*
X150114488Y-110324279D01*
X150114488Y-110324279D02*
X149971478Y-110044212D01*
X149971478Y-110044212D02*
X149785617Y-110021797D01*
X149785617Y-110021797D02*
X149630804Y-110237668D01*
X149630804Y-110237668D02*
X149584474Y-110463171D01*
X149584474Y-110463171D02*
X149597550Y-110716957D01*
X149597550Y-110716957D02*
X149717259Y-110655819D01*
X149717259Y-110655819D02*
X149854206Y-110599308D01*
X149854206Y-110599308D02*
X149878314Y-110795320D01*
X149878314Y-110795320D02*
X149797240Y-111128894D01*
X149797240Y-111128894D02*
X149667119Y-111408577D01*
X149667119Y-111408577D02*
X149480714Y-111950020D01*
X149480714Y-111950020D02*
X149429491Y-112629358D01*
X149429491Y-112629358D02*
X149521465Y-113309972D01*
X149521465Y-113309972D02*
X149549771Y-113409108D01*
X149549771Y-113409108D02*
X149832510Y-113966197D01*
X149832510Y-113966197D02*
X150159074Y-114009282D01*
X150159074Y-114009282D02*
X150460582Y-113621264D01*
X150460582Y-113621264D02*
X150716560Y-113244742D01*
X150716560Y-113244742D02*
X150971137Y-113047888D01*
X150971137Y-113047888D02*
X151016207Y-113039789D01*
X151016207Y-113039789D02*
X151176371Y-112991055D01*
X151176371Y-112991055D02*
X151186429Y-112845034D01*
X151186429Y-112845034D02*
X151163996Y-112786749D01*
X151163996Y-112786749D02*
X151094942Y-112405092D01*
X151094942Y-112405092D02*
X151094365Y-112362074D01*
X151094365Y-112362074D02*
X150837900Y-112362074D01*
X150837900Y-112362074D02*
X150791632Y-112671135D01*
X150791632Y-112671135D02*
X150696428Y-112621853D01*
X150696428Y-112621853D02*
X150617966Y-112250361D01*
X150617966Y-112250361D02*
X150652512Y-111962472D01*
X150652512Y-111962472D02*
X150712223Y-111915222D01*
X150712223Y-111915222D02*
X150821566Y-112142454D01*
X150821566Y-112142454D02*
X150837900Y-112362074D01*
X150837900Y-112362074D02*
X151094365Y-112362074D01*
X151094365Y-112362074D02*
X151084657Y-111638807D01*
X151084657Y-111638807D02*
X151095162Y-111224736D01*
X151095162Y-111224736D02*
X151136795Y-109911441D01*
X151136795Y-109911441D02*
X150769780Y-109996109D01*
X150769780Y-109996109D02*
X150769780Y-109996109D01*
G36*
X151163996Y-112786749D02*
G01*
X151186429Y-112845034D01*
X151176371Y-112991055D01*
X151016207Y-113039789D01*
X150971137Y-113047888D01*
X150716560Y-113244742D01*
X150460582Y-113621264D01*
X150159074Y-114009282D01*
X149832510Y-113966197D01*
X149549771Y-113409108D01*
X149521465Y-113309972D01*
X149429491Y-112629358D01*
X149480714Y-111950020D01*
X149667119Y-111408577D01*
X149797240Y-111128894D01*
X149878314Y-110795320D01*
X149854206Y-110599308D01*
X149717259Y-110655819D01*
X149597550Y-110716957D01*
X149584474Y-110463171D01*
X149630804Y-110237668D01*
X149785617Y-110021797D01*
X149971478Y-110044212D01*
X150114488Y-110324279D01*
X150133710Y-110407945D01*
X150170676Y-110647426D01*
X150145170Y-110892985D01*
X150035760Y-111255848D01*
X149821012Y-111847237D01*
X149705715Y-112276410D01*
X149690861Y-112837351D01*
X149696977Y-112887145D01*
X149830482Y-113333337D01*
X150037372Y-113570305D01*
X150242411Y-113506738D01*
X150306939Y-113309663D01*
X150356474Y-112770772D01*
X150344186Y-112250361D01*
X150617966Y-112250361D01*
X150696428Y-112621853D01*
X150791632Y-112671135D01*
X150837900Y-112362074D01*
X150821566Y-112142454D01*
X150712223Y-111915222D01*
X150652512Y-111962472D01*
X150617966Y-112250361D01*
X150344186Y-112250361D01*
X150342738Y-112189043D01*
X150262432Y-111839312D01*
X150248340Y-111791350D01*
X150320053Y-111655888D01*
X150500557Y-111508765D01*
X150554416Y-111472114D01*
X150762814Y-111222195D01*
X150837900Y-110902637D01*
X150833248Y-110792683D01*
X150746670Y-110540885D01*
X150597920Y-110559846D01*
X150449196Y-110856888D01*
X150432383Y-110913055D01*
X150369870Y-111021048D01*
X150374504Y-110645222D01*
X150414587Y-110316683D01*
X150533602Y-110100583D01*
X150769780Y-109996109D01*
X151136795Y-109911441D01*
X151095162Y-111224736D01*
X151084657Y-111638807D01*
X151094365Y-112362074D01*
X151094942Y-112405092D01*
X151163996Y-112786749D01*
G37*
X151163996Y-112786749D02*
X151186429Y-112845034D01*
X151176371Y-112991055D01*
X151016207Y-113039789D01*
X150971137Y-113047888D01*
X150716560Y-113244742D01*
X150460582Y-113621264D01*
X150159074Y-114009282D01*
X149832510Y-113966197D01*
X149549771Y-113409108D01*
X149521465Y-113309972D01*
X149429491Y-112629358D01*
X149480714Y-111950020D01*
X149667119Y-111408577D01*
X149797240Y-111128894D01*
X149878314Y-110795320D01*
X149854206Y-110599308D01*
X149717259Y-110655819D01*
X149597550Y-110716957D01*
X149584474Y-110463171D01*
X149630804Y-110237668D01*
X149785617Y-110021797D01*
X149971478Y-110044212D01*
X150114488Y-110324279D01*
X150133710Y-110407945D01*
X150170676Y-110647426D01*
X150145170Y-110892985D01*
X150035760Y-111255848D01*
X149821012Y-111847237D01*
X149705715Y-112276410D01*
X149690861Y-112837351D01*
X149696977Y-112887145D01*
X149830482Y-113333337D01*
X150037372Y-113570305D01*
X150242411Y-113506738D01*
X150306939Y-113309663D01*
X150356474Y-112770772D01*
X150344186Y-112250361D01*
X150617966Y-112250361D01*
X150696428Y-112621853D01*
X150791632Y-112671135D01*
X150837900Y-112362074D01*
X150821566Y-112142454D01*
X150712223Y-111915222D01*
X150652512Y-111962472D01*
X150617966Y-112250361D01*
X150344186Y-112250361D01*
X150342738Y-112189043D01*
X150262432Y-111839312D01*
X150248340Y-111791350D01*
X150320053Y-111655888D01*
X150500557Y-111508765D01*
X150554416Y-111472114D01*
X150762814Y-111222195D01*
X150837900Y-110902637D01*
X150833248Y-110792683D01*
X150746670Y-110540885D01*
X150597920Y-110559846D01*
X150449196Y-110856888D01*
X150432383Y-110913055D01*
X150369870Y-111021048D01*
X150374504Y-110645222D01*
X150414587Y-110316683D01*
X150533602Y-110100583D01*
X150769780Y-109996109D01*
X151136795Y-109911441D01*
X151095162Y-111224736D01*
X151084657Y-111638807D01*
X151094365Y-112362074D01*
X151094942Y-112405092D01*
X151163996Y-112786749D01*
X153825512Y-110073066D02*
X153651040Y-110345811D01*
X153651040Y-110345811D02*
X153546626Y-110736592D01*
X153546626Y-110736592D02*
X153571169Y-111176204D01*
X153571169Y-111176204D02*
X153594895Y-111322432D01*
X153594895Y-111322432D02*
X153654130Y-111944888D01*
X153654130Y-111944888D02*
X153645934Y-112327398D01*
X153645934Y-112327398D02*
X153585108Y-112684140D01*
X153585108Y-112684140D02*
X153465761Y-112836024D01*
X153465761Y-112836024D02*
X153373651Y-112874777D01*
X153373651Y-112874777D02*
X153292938Y-112662474D01*
X153292938Y-112662474D02*
X153172193Y-112085020D01*
X153172193Y-112085020D02*
X153075995Y-111511104D01*
X153075995Y-111511104D02*
X153072766Y-111491888D01*
X153072766Y-111491888D02*
X152901650Y-111491888D01*
X152901650Y-111491888D02*
X152860111Y-111867531D01*
X152860111Y-111867531D02*
X152824767Y-111915222D01*
X152824767Y-111915222D02*
X152781093Y-111708351D01*
X152781093Y-111708351D02*
X152793571Y-111491888D01*
X152793571Y-111491888D02*
X152849911Y-111120550D01*
X152849911Y-111120550D02*
X152870455Y-111068555D01*
X152870455Y-111068555D02*
X152898203Y-111299013D01*
X152898203Y-111299013D02*
X152901650Y-111491888D01*
X152901650Y-111491888D02*
X153072766Y-111491888D01*
X153072766Y-111491888D02*
X152944762Y-110730283D01*
X152944762Y-110730283D02*
X152832179Y-110185271D01*
X152832179Y-110185271D02*
X152780489Y-110026950D01*
X152780489Y-110026950D02*
X152714789Y-110214997D01*
X152714789Y-110214997D02*
X152622947Y-110763355D01*
X152622947Y-110763355D02*
X152527422Y-111494995D01*
X152527422Y-111494995D02*
X152450674Y-112232883D01*
X152450674Y-112232883D02*
X152415160Y-112799989D01*
X152415160Y-112799989D02*
X152415627Y-112903000D01*
X152415627Y-112903000D02*
X152475965Y-113171047D01*
X152475965Y-113171047D02*
X152572149Y-113109036D01*
X152572149Y-113109036D02*
X152623811Y-112771434D01*
X152623811Y-112771434D02*
X152623838Y-112761888D01*
X152623838Y-112761888D02*
X152692839Y-112421411D01*
X152692839Y-112421411D02*
X152822275Y-112338555D01*
X152822275Y-112338555D02*
X152971994Y-112451006D01*
X152971994Y-112451006D02*
X153012036Y-112879933D01*
X153012036Y-112879933D02*
X153011209Y-112973555D01*
X153011209Y-112973555D02*
X153028677Y-113407767D01*
X153028677Y-113407767D02*
X153128319Y-113582936D01*
X153128319Y-113582936D02*
X153272786Y-113608555D01*
X153272786Y-113608555D02*
X153574309Y-113352871D01*
X153574309Y-113352871D02*
X153742304Y-112903000D01*
X153742304Y-112903000D02*
X153911723Y-112351969D01*
X153911723Y-112351969D02*
X153993681Y-112230001D01*
X153993681Y-112230001D02*
X153998813Y-112522367D01*
X153998813Y-112522367D02*
X153997075Y-112550222D01*
X153997075Y-112550222D02*
X154006047Y-112883162D01*
X154006047Y-112883162D02*
X154113660Y-113016719D01*
X154113660Y-113016719D02*
X154270869Y-113021830D01*
X154270869Y-113021830D02*
X154371028Y-112956719D01*
X154371028Y-112956719D02*
X154350244Y-112857200D01*
X154350244Y-112857200D02*
X154289711Y-112533053D01*
X154289711Y-112533053D02*
X154257512Y-111918625D01*
X154257512Y-111918625D02*
X154255047Y-111231435D01*
X154255047Y-111231435D02*
X154262412Y-111092074D01*
X154262412Y-111092074D02*
X154012900Y-111092074D01*
X154012900Y-111092074D02*
X153971080Y-111505847D01*
X153971080Y-111505847D02*
X153882569Y-111516495D01*
X153882569Y-111516495D02*
X153802790Y-111153067D01*
X153802790Y-111153067D02*
X153788799Y-110974613D01*
X153788799Y-110974613D02*
X153822992Y-110571823D01*
X153822992Y-110571823D02*
X153888018Y-110504111D01*
X153888018Y-110504111D02*
X153991065Y-110741511D01*
X153991065Y-110741511D02*
X154012900Y-111092074D01*
X154012900Y-111092074D02*
X154262412Y-111092074D01*
X154262412Y-111092074D02*
X154283717Y-110689002D01*
X154283717Y-110689002D02*
X154335085Y-110504111D01*
X154335085Y-110504111D02*
X154382491Y-110331211D01*
X154382491Y-110331211D02*
X154370088Y-110221888D01*
X154370088Y-110221888D02*
X154251088Y-109997739D01*
X154251088Y-109997739D02*
X154047811Y-109951880D01*
X154047811Y-109951880D02*
X153825512Y-110073066D01*
X153825512Y-110073066D02*
X153825512Y-110073066D01*
G36*
X153172193Y-112085020D02*
G01*
X153292938Y-112662474D01*
X153373651Y-112874777D01*
X153465761Y-112836024D01*
X153585108Y-112684140D01*
X153645934Y-112327398D01*
X153654130Y-111944888D01*
X153594895Y-111322432D01*
X153571169Y-111176204D01*
X153559914Y-110974613D01*
X153788799Y-110974613D01*
X153802790Y-111153067D01*
X153882569Y-111516495D01*
X153971080Y-111505847D01*
X154012900Y-111092074D01*
X153991065Y-110741511D01*
X153888018Y-110504111D01*
X153822992Y-110571823D01*
X153788799Y-110974613D01*
X153559914Y-110974613D01*
X153546626Y-110736592D01*
X153651040Y-110345811D01*
X153825512Y-110073066D01*
X154047811Y-109951880D01*
X154251088Y-109997739D01*
X154370088Y-110221888D01*
X154382491Y-110331211D01*
X154335085Y-110504111D01*
X154283717Y-110689002D01*
X154262412Y-111092074D01*
X154255047Y-111231435D01*
X154257512Y-111918625D01*
X154289711Y-112533053D01*
X154350244Y-112857200D01*
X154371028Y-112956719D01*
X154270869Y-113021830D01*
X154113660Y-113016719D01*
X154006047Y-112883162D01*
X153997075Y-112550222D01*
X153998813Y-112522367D01*
X153993681Y-112230001D01*
X153911723Y-112351969D01*
X153742304Y-112903000D01*
X153574309Y-113352871D01*
X153272786Y-113608555D01*
X153128319Y-113582936D01*
X153028677Y-113407767D01*
X153011209Y-112973555D01*
X153012036Y-112879933D01*
X152971994Y-112451006D01*
X152822275Y-112338555D01*
X152692839Y-112421411D01*
X152623838Y-112761888D01*
X152623811Y-112771434D01*
X152572149Y-113109036D01*
X152475965Y-113171047D01*
X152415627Y-112903000D01*
X152415160Y-112799989D01*
X152450674Y-112232883D01*
X152505231Y-111708351D01*
X152781093Y-111708351D01*
X152824767Y-111915222D01*
X152860111Y-111867531D01*
X152901650Y-111491888D01*
X152898203Y-111299013D01*
X152870455Y-111068555D01*
X152849911Y-111120550D01*
X152793571Y-111491888D01*
X152781093Y-111708351D01*
X152505231Y-111708351D01*
X152527422Y-111494995D01*
X152622947Y-110763355D01*
X152714789Y-110214997D01*
X152780489Y-110026950D01*
X152832179Y-110185271D01*
X152944762Y-110730283D01*
X153072766Y-111491888D01*
X153075995Y-111511104D01*
X153172193Y-112085020D01*
G37*
X153172193Y-112085020D02*
X153292938Y-112662474D01*
X153373651Y-112874777D01*
X153465761Y-112836024D01*
X153585108Y-112684140D01*
X153645934Y-112327398D01*
X153654130Y-111944888D01*
X153594895Y-111322432D01*
X153571169Y-111176204D01*
X153559914Y-110974613D01*
X153788799Y-110974613D01*
X153802790Y-111153067D01*
X153882569Y-111516495D01*
X153971080Y-111505847D01*
X154012900Y-111092074D01*
X153991065Y-110741511D01*
X153888018Y-110504111D01*
X153822992Y-110571823D01*
X153788799Y-110974613D01*
X153559914Y-110974613D01*
X153546626Y-110736592D01*
X153651040Y-110345811D01*
X153825512Y-110073066D01*
X154047811Y-109951880D01*
X154251088Y-109997739D01*
X154370088Y-110221888D01*
X154382491Y-110331211D01*
X154335085Y-110504111D01*
X154283717Y-110689002D01*
X154262412Y-111092074D01*
X154255047Y-111231435D01*
X154257512Y-111918625D01*
X154289711Y-112533053D01*
X154350244Y-112857200D01*
X154371028Y-112956719D01*
X154270869Y-113021830D01*
X154113660Y-113016719D01*
X154006047Y-112883162D01*
X153997075Y-112550222D01*
X153998813Y-112522367D01*
X153993681Y-112230001D01*
X153911723Y-112351969D01*
X153742304Y-112903000D01*
X153574309Y-113352871D01*
X153272786Y-113608555D01*
X153128319Y-113582936D01*
X153028677Y-113407767D01*
X153011209Y-112973555D01*
X153012036Y-112879933D01*
X152971994Y-112451006D01*
X152822275Y-112338555D01*
X152692839Y-112421411D01*
X152623838Y-112761888D01*
X152623811Y-112771434D01*
X152572149Y-113109036D01*
X152475965Y-113171047D01*
X152415627Y-112903000D01*
X152415160Y-112799989D01*
X152450674Y-112232883D01*
X152505231Y-111708351D01*
X152781093Y-111708351D01*
X152824767Y-111915222D01*
X152860111Y-111867531D01*
X152901650Y-111491888D01*
X152898203Y-111299013D01*
X152870455Y-111068555D01*
X152849911Y-111120550D01*
X152793571Y-111491888D01*
X152781093Y-111708351D01*
X152505231Y-111708351D01*
X152527422Y-111494995D01*
X152622947Y-110763355D01*
X152714789Y-110214997D01*
X152780489Y-110026950D01*
X152832179Y-110185271D01*
X152944762Y-110730283D01*
X153072766Y-111491888D01*
X153075995Y-111511104D01*
X153172193Y-112085020D01*
X157759448Y-110131259D02*
X157691541Y-110375171D01*
X157691541Y-110375171D02*
X157674325Y-110870937D01*
X157674325Y-110870937D02*
X157761887Y-110963924D01*
X157761887Y-110963924D02*
X157884032Y-110761347D01*
X157884032Y-110761347D02*
X158088130Y-110533330D01*
X158088130Y-110533330D02*
X158235430Y-110803695D01*
X158235430Y-110803695D02*
X158298526Y-111516139D01*
X158298526Y-111516139D02*
X158299150Y-111614212D01*
X158299150Y-111614212D02*
X158244001Y-112370106D01*
X158244001Y-112370106D02*
X158105252Y-112822954D01*
X158105252Y-112822954D02*
X157922955Y-112842405D01*
X157922955Y-112842405D02*
X157922119Y-112841345D01*
X157922119Y-112841345D02*
X157828197Y-112558929D01*
X157828197Y-112558929D02*
X157874063Y-112248464D01*
X157874063Y-112248464D02*
X157961807Y-112120703D01*
X157961807Y-112120703D02*
X158059125Y-112006280D01*
X158059125Y-112006280D02*
X158009128Y-111862498D01*
X158009128Y-111862498D02*
X157961807Y-111787592D01*
X157961807Y-111787592D02*
X157764115Y-111665939D01*
X157764115Y-111665939D02*
X157652234Y-111984112D01*
X157652234Y-111984112D02*
X157643527Y-112598533D01*
X157643527Y-112598533D02*
X157686394Y-113056652D01*
X157686394Y-113056652D02*
X157781523Y-113268427D01*
X157781523Y-113268427D02*
X157977389Y-113325438D01*
X157977389Y-113325438D02*
X158028761Y-113326333D01*
X158028761Y-113326333D02*
X158273349Y-113255347D01*
X158273349Y-113255347D02*
X158422821Y-112984561D01*
X158422821Y-112984561D02*
X158499380Y-112650662D01*
X158499380Y-112650662D02*
X158578926Y-111814425D01*
X158578926Y-111814425D02*
X158547491Y-110960167D01*
X158547491Y-110960167D02*
X158416430Y-110309621D01*
X158416430Y-110309621D02*
X158374613Y-110214444D01*
X158374613Y-110214444D02*
X158165092Y-109980172D01*
X158165092Y-109980172D02*
X157939646Y-109957242D01*
X157939646Y-109957242D02*
X157759448Y-110131259D01*
X157759448Y-110131259D02*
X157759448Y-110131259D01*
G36*
X158165092Y-109980172D02*
G01*
X158374613Y-110214444D01*
X158416430Y-110309621D01*
X158547491Y-110960167D01*
X158578926Y-111814425D01*
X158499380Y-112650662D01*
X158422821Y-112984561D01*
X158273349Y-113255347D01*
X158028761Y-113326333D01*
X157977389Y-113325438D01*
X157781523Y-113268427D01*
X157686394Y-113056652D01*
X157643527Y-112598533D01*
X157652234Y-111984112D01*
X157764115Y-111665939D01*
X157961807Y-111787592D01*
X158009128Y-111862498D01*
X158059125Y-112006280D01*
X157961807Y-112120703D01*
X157874063Y-112248464D01*
X157828197Y-112558929D01*
X157922119Y-112841345D01*
X157922955Y-112842405D01*
X158105252Y-112822954D01*
X158244001Y-112370106D01*
X158299150Y-111614212D01*
X158298526Y-111516139D01*
X158235430Y-110803695D01*
X158088130Y-110533330D01*
X157884032Y-110761347D01*
X157761887Y-110963924D01*
X157674325Y-110870937D01*
X157691541Y-110375171D01*
X157759448Y-110131259D01*
X157939646Y-109957242D01*
X158165092Y-109980172D01*
G37*
X158165092Y-109980172D02*
X158374613Y-110214444D01*
X158416430Y-110309621D01*
X158547491Y-110960167D01*
X158578926Y-111814425D01*
X158499380Y-112650662D01*
X158422821Y-112984561D01*
X158273349Y-113255347D01*
X158028761Y-113326333D01*
X157977389Y-113325438D01*
X157781523Y-113268427D01*
X157686394Y-113056652D01*
X157643527Y-112598533D01*
X157652234Y-111984112D01*
X157764115Y-111665939D01*
X157961807Y-111787592D01*
X158009128Y-111862498D01*
X158059125Y-112006280D01*
X157961807Y-112120703D01*
X157874063Y-112248464D01*
X157828197Y-112558929D01*
X157922119Y-112841345D01*
X157922955Y-112842405D01*
X158105252Y-112822954D01*
X158244001Y-112370106D01*
X158299150Y-111614212D01*
X158298526Y-111516139D01*
X158235430Y-110803695D01*
X158088130Y-110533330D01*
X157884032Y-110761347D01*
X157761887Y-110963924D01*
X157674325Y-110870937D01*
X157691541Y-110375171D01*
X157759448Y-110131259D01*
X157939646Y-109957242D01*
X158165092Y-109980172D01*
X154631727Y-109980198D02*
X154606559Y-110151543D01*
X154606559Y-110151543D02*
X154646661Y-110357690D01*
X154646661Y-110357690D02*
X154704154Y-110913183D01*
X154704154Y-110913183D02*
X154717169Y-111748472D01*
X154717169Y-111748472D02*
X154713814Y-111909912D01*
X154713814Y-111909912D02*
X154702330Y-112633531D01*
X154702330Y-112633531D02*
X154739079Y-112957375D01*
X154739079Y-112957375D02*
X154852256Y-113041602D01*
X154852256Y-113041602D02*
X154913491Y-113044111D01*
X154913491Y-113044111D02*
X155065726Y-113002434D01*
X155065726Y-113002434D02*
X155085097Y-112822838D01*
X155085097Y-112822838D02*
X155044145Y-112618077D01*
X155044145Y-112618077D02*
X154981892Y-111982049D01*
X154981892Y-111982049D02*
X154987186Y-111065855D01*
X154987186Y-111065855D02*
X155007080Y-110347009D01*
X155007080Y-110347009D02*
X154974744Y-110025912D01*
X154974744Y-110025912D02*
X154862046Y-109942413D01*
X154862046Y-109942413D02*
X154789378Y-109939666D01*
X154789378Y-109939666D02*
X154631727Y-109980198D01*
X154631727Y-109980198D02*
X154631727Y-109980198D01*
G36*
X154862046Y-109942413D02*
G01*
X154974744Y-110025912D01*
X155007080Y-110347009D01*
X154987186Y-111065855D01*
X154981892Y-111982049D01*
X155044145Y-112618077D01*
X155085097Y-112822838D01*
X155065726Y-113002434D01*
X154913491Y-113044111D01*
X154852256Y-113041602D01*
X154739079Y-112957375D01*
X154702330Y-112633531D01*
X154713814Y-111909912D01*
X154717169Y-111748472D01*
X154704154Y-110913183D01*
X154646661Y-110357690D01*
X154606559Y-110151543D01*
X154631727Y-109980198D01*
X154789378Y-109939666D01*
X154862046Y-109942413D01*
G37*
X154862046Y-109942413D02*
X154974744Y-110025912D01*
X155007080Y-110347009D01*
X154987186Y-111065855D01*
X154981892Y-111982049D01*
X155044145Y-112618077D01*
X155085097Y-112822838D01*
X155065726Y-113002434D01*
X154913491Y-113044111D01*
X154852256Y-113041602D01*
X154739079Y-112957375D01*
X154702330Y-112633531D01*
X154713814Y-111909912D01*
X154717169Y-111748472D01*
X154704154Y-110913183D01*
X154646661Y-110357690D01*
X154606559Y-110151543D01*
X154631727Y-109980198D01*
X154789378Y-109939666D01*
X154862046Y-109942413D01*
X147264143Y-110166041D02*
X147111629Y-110707871D01*
X147111629Y-110707871D02*
X147012221Y-111359212D01*
X147012221Y-111359212D02*
X147004713Y-111862679D01*
X147004713Y-111862679D02*
X147138141Y-112670842D01*
X147138141Y-112670842D02*
X147325343Y-113183631D01*
X147325343Y-113183631D02*
X147525551Y-113337981D01*
X147525551Y-113337981D02*
X147697996Y-113070829D01*
X147697996Y-113070829D02*
X147722842Y-112973555D01*
X147722842Y-112973555D02*
X147850842Y-112062237D01*
X147850842Y-112062237D02*
X147830391Y-111464093D01*
X147830391Y-111464093D02*
X147575400Y-111464093D01*
X147575400Y-111464093D02*
X147568695Y-112159355D01*
X147568695Y-112159355D02*
X147550073Y-112382549D01*
X147550073Y-112382549D02*
X147471773Y-112725362D01*
X147471773Y-112725362D02*
X147386166Y-112610110D01*
X147386166Y-112610110D02*
X147322172Y-112128281D01*
X147322172Y-112128281D02*
X147305713Y-111609481D01*
X147305713Y-111609481D02*
X147332852Y-110888268D01*
X147332852Y-110888268D02*
X147418759Y-110645760D01*
X147418759Y-110645760D02*
X147424775Y-110645222D01*
X147424775Y-110645222D02*
X147522165Y-110886421D01*
X147522165Y-110886421D02*
X147575400Y-111464093D01*
X147575400Y-111464093D02*
X147830391Y-111464093D01*
X147830391Y-111464093D02*
X147820245Y-111167351D01*
X147820245Y-111167351D02*
X147737905Y-110689567D01*
X147737905Y-110689567D02*
X147582429Y-110171902D01*
X147582429Y-110171902D02*
X147431968Y-109940511D01*
X147431968Y-109940511D02*
X147424775Y-109939666D01*
X147424775Y-109939666D02*
X147264143Y-110166041D01*
X147264143Y-110166041D02*
X147264143Y-110166041D01*
G36*
X147722842Y-112973555D02*
G01*
X147697996Y-113070829D01*
X147525551Y-113337981D01*
X147325343Y-113183631D01*
X147138141Y-112670842D01*
X147004713Y-111862679D01*
X147008489Y-111609481D01*
X147305713Y-111609481D01*
X147322172Y-112128281D01*
X147386166Y-112610110D01*
X147471773Y-112725362D01*
X147550073Y-112382549D01*
X147568695Y-112159355D01*
X147575400Y-111464093D01*
X147522165Y-110886421D01*
X147424775Y-110645222D01*
X147418759Y-110645760D01*
X147332852Y-110888268D01*
X147305713Y-111609481D01*
X147008489Y-111609481D01*
X147012221Y-111359212D01*
X147111629Y-110707871D01*
X147264143Y-110166041D01*
X147424775Y-109939666D01*
X147431968Y-109940511D01*
X147582429Y-110171902D01*
X147737905Y-110689567D01*
X147820245Y-111167351D01*
X147830391Y-111464093D01*
X147850842Y-112062237D01*
X147722842Y-112973555D01*
G37*
X147722842Y-112973555D02*
X147697996Y-113070829D01*
X147525551Y-113337981D01*
X147325343Y-113183631D01*
X147138141Y-112670842D01*
X147004713Y-111862679D01*
X147008489Y-111609481D01*
X147305713Y-111609481D01*
X147322172Y-112128281D01*
X147386166Y-112610110D01*
X147471773Y-112725362D01*
X147550073Y-112382549D01*
X147568695Y-112159355D01*
X147575400Y-111464093D01*
X147522165Y-110886421D01*
X147424775Y-110645222D01*
X147418759Y-110645760D01*
X147332852Y-110888268D01*
X147305713Y-111609481D01*
X147008489Y-111609481D01*
X147012221Y-111359212D01*
X147111629Y-110707871D01*
X147264143Y-110166041D01*
X147424775Y-109939666D01*
X147431968Y-109940511D01*
X147582429Y-110171902D01*
X147737905Y-110689567D01*
X147820245Y-111167351D01*
X147830391Y-111464093D01*
X147850842Y-112062237D01*
X147722842Y-112973555D01*
X161653650Y-109213130D02*
X161408120Y-109371404D01*
X161408120Y-109371404D02*
X161224245Y-109599618D01*
X161224245Y-109599618D02*
X161185337Y-109689905D01*
X161185337Y-109689905D02*
X161102585Y-110221567D01*
X161102585Y-110221567D02*
X161103993Y-110554670D01*
X161103993Y-110554670D02*
X161102762Y-111057648D01*
X161102762Y-111057648D02*
X161069824Y-111226041D01*
X161069824Y-111226041D02*
X161010229Y-111629683D01*
X161010229Y-111629683D02*
X161003399Y-112253455D01*
X161003399Y-112253455D02*
X161047473Y-112787513D01*
X161047473Y-112787513D02*
X161079937Y-112908848D01*
X161079937Y-112908848D02*
X161207001Y-113039909D01*
X161207001Y-113039909D02*
X161421442Y-113133935D01*
X161421442Y-113133935D02*
X161675012Y-113185815D01*
X161675012Y-113185815D02*
X161919463Y-113190437D01*
X161919463Y-113190437D02*
X162106547Y-113142690D01*
X162106547Y-113142690D02*
X162188016Y-113037461D01*
X162188016Y-113037461D02*
X162188525Y-113026303D01*
X162188525Y-113026303D02*
X162127973Y-112769449D01*
X162127973Y-112769449D02*
X162109150Y-112761888D01*
X162109150Y-112761888D02*
X162065682Y-112506715D01*
X162065682Y-112506715D02*
X162039661Y-111912624D01*
X162039661Y-111912624D02*
X161721741Y-111912624D01*
X161721741Y-111912624D02*
X161670758Y-112357402D01*
X161670758Y-112357402D02*
X161532427Y-112682500D01*
X161532427Y-112682500D02*
X161457099Y-112739608D01*
X161457099Y-112739608D02*
X161378934Y-112541849D01*
X161378934Y-112541849D02*
X161320986Y-112234551D01*
X161320986Y-112234551D02*
X161278436Y-111686905D01*
X161278436Y-111686905D02*
X161367298Y-111408699D01*
X161367298Y-111408699D02*
X161527067Y-111350777D01*
X161527067Y-111350777D02*
X161676727Y-111519854D01*
X161676727Y-111519854D02*
X161721741Y-111912624D01*
X161721741Y-111912624D02*
X162039661Y-111912624D01*
X162039661Y-111912624D02*
X162036851Y-111848473D01*
X162036851Y-111848473D02*
X162029775Y-111209666D01*
X162029775Y-111209666D02*
X162039756Y-110282519D01*
X162039756Y-110282519D02*
X162044305Y-110221888D01*
X162044305Y-110221888D02*
X161712275Y-110221888D01*
X161712275Y-110221888D02*
X161650082Y-110655575D01*
X161650082Y-110655575D02*
X161512034Y-110810844D01*
X161512034Y-110810844D02*
X161370928Y-110607377D01*
X161370928Y-110607377D02*
X161369006Y-110600633D01*
X161369006Y-110600633D02*
X161364401Y-110269531D01*
X161364401Y-110269531D02*
X161450679Y-109889437D01*
X161450679Y-109889437D02*
X161576971Y-109665458D01*
X161576971Y-109665458D02*
X161602932Y-109657444D01*
X161602932Y-109657444D02*
X161691609Y-109892655D01*
X161691609Y-109892655D02*
X161712275Y-110221888D01*
X161712275Y-110221888D02*
X162044305Y-110221888D01*
X162044305Y-110221888D02*
X162075727Y-109803124D01*
X162075727Y-109803124D02*
X162146735Y-109658015D01*
X162146735Y-109658015D02*
X162153522Y-109657444D01*
X162153522Y-109657444D02*
X162234002Y-109510218D01*
X162234002Y-109510218D02*
X162222042Y-109339722D01*
X162222042Y-109339722D02*
X162114424Y-109179111D01*
X162114424Y-109179111D02*
X161907022Y-109142973D01*
X161907022Y-109142973D02*
X161653650Y-109213130D01*
X161653650Y-109213130D02*
X161653650Y-109213130D01*
G36*
X162109150Y-112761888D02*
G01*
X162127973Y-112769449D01*
X162188525Y-113026303D01*
X162188016Y-113037461D01*
X162106547Y-113142690D01*
X161919463Y-113190437D01*
X161675012Y-113185815D01*
X161421442Y-113133935D01*
X161207001Y-113039909D01*
X161079937Y-112908848D01*
X161047473Y-112787513D01*
X161003399Y-112253455D01*
X161009602Y-111686905D01*
X161278436Y-111686905D01*
X161320986Y-112234551D01*
X161378934Y-112541849D01*
X161457099Y-112739608D01*
X161532427Y-112682500D01*
X161670758Y-112357402D01*
X161721741Y-111912624D01*
X161676727Y-111519854D01*
X161527067Y-111350777D01*
X161367298Y-111408699D01*
X161278436Y-111686905D01*
X161009602Y-111686905D01*
X161010229Y-111629683D01*
X161069824Y-111226041D01*
X161102762Y-111057648D01*
X161103993Y-110554670D01*
X161102788Y-110269531D01*
X161364401Y-110269531D01*
X161369006Y-110600633D01*
X161370928Y-110607377D01*
X161512034Y-110810844D01*
X161650082Y-110655575D01*
X161712275Y-110221888D01*
X161691609Y-109892655D01*
X161602932Y-109657444D01*
X161576971Y-109665458D01*
X161450679Y-109889437D01*
X161364401Y-110269531D01*
X161102788Y-110269531D01*
X161102585Y-110221567D01*
X161185337Y-109689905D01*
X161224245Y-109599618D01*
X161408120Y-109371404D01*
X161653650Y-109213130D01*
X161907022Y-109142973D01*
X162114424Y-109179111D01*
X162222042Y-109339722D01*
X162234002Y-109510218D01*
X162153522Y-109657444D01*
X162146735Y-109658015D01*
X162075727Y-109803124D01*
X162044305Y-110221888D01*
X162039756Y-110282519D01*
X162029775Y-111209666D01*
X162036851Y-111848473D01*
X162039661Y-111912624D01*
X162065682Y-112506715D01*
X162109150Y-112761888D01*
G37*
X162109150Y-112761888D02*
X162127973Y-112769449D01*
X162188525Y-113026303D01*
X162188016Y-113037461D01*
X162106547Y-113142690D01*
X161919463Y-113190437D01*
X161675012Y-113185815D01*
X161421442Y-113133935D01*
X161207001Y-113039909D01*
X161079937Y-112908848D01*
X161047473Y-112787513D01*
X161003399Y-112253455D01*
X161009602Y-111686905D01*
X161278436Y-111686905D01*
X161320986Y-112234551D01*
X161378934Y-112541849D01*
X161457099Y-112739608D01*
X161532427Y-112682500D01*
X161670758Y-112357402D01*
X161721741Y-111912624D01*
X161676727Y-111519854D01*
X161527067Y-111350777D01*
X161367298Y-111408699D01*
X161278436Y-111686905D01*
X161009602Y-111686905D01*
X161010229Y-111629683D01*
X161069824Y-111226041D01*
X161102762Y-111057648D01*
X161103993Y-110554670D01*
X161102788Y-110269531D01*
X161364401Y-110269531D01*
X161369006Y-110600633D01*
X161370928Y-110607377D01*
X161512034Y-110810844D01*
X161650082Y-110655575D01*
X161712275Y-110221888D01*
X161691609Y-109892655D01*
X161602932Y-109657444D01*
X161576971Y-109665458D01*
X161450679Y-109889437D01*
X161364401Y-110269531D01*
X161102788Y-110269531D01*
X161102585Y-110221567D01*
X161185337Y-109689905D01*
X161224245Y-109599618D01*
X161408120Y-109371404D01*
X161653650Y-109213130D01*
X161907022Y-109142973D01*
X162114424Y-109179111D01*
X162222042Y-109339722D01*
X162234002Y-109510218D01*
X162153522Y-109657444D01*
X162146735Y-109658015D01*
X162075727Y-109803124D01*
X162044305Y-110221888D01*
X162039756Y-110282519D01*
X162029775Y-111209666D01*
X162036851Y-111848473D01*
X162039661Y-111912624D01*
X162065682Y-112506715D01*
X162109150Y-112761888D01*
X159201413Y-110032195D02*
X158907964Y-110327662D01*
X158907964Y-110327662D02*
X158746616Y-110836542D01*
X158746616Y-110836542D02*
X158696054Y-111627127D01*
X158696054Y-111627127D02*
X158696025Y-111651553D01*
X158696025Y-111651553D02*
X158765769Y-112486546D01*
X158765769Y-112486546D02*
X158965655Y-113051394D01*
X158965655Y-113051394D02*
X159281669Y-113312327D01*
X159281669Y-113312327D02*
X159391167Y-113326333D01*
X159391167Y-113326333D02*
X159600477Y-113303930D01*
X159600477Y-113303930D02*
X159682968Y-113190248D01*
X159682968Y-113190248D02*
X159670456Y-112915576D01*
X159670456Y-112915576D02*
X159648587Y-112762299D01*
X159648587Y-112762299D02*
X159588801Y-111866377D01*
X159588801Y-111866377D02*
X159613654Y-111293640D01*
X159613654Y-111293640D02*
X159359507Y-111293640D01*
X159359507Y-111293640D02*
X159343937Y-112140736D01*
X159343937Y-112140736D02*
X159278776Y-112666947D01*
X159278776Y-112666947D02*
X159185308Y-112737194D01*
X159185308Y-112737194D02*
X159098697Y-112412887D01*
X159098697Y-112412887D02*
X159054104Y-111755434D01*
X159054104Y-111755434D02*
X159053213Y-111633000D01*
X159053213Y-111633000D02*
X159082626Y-110877669D01*
X159082626Y-110877669D02*
X159177688Y-110568412D01*
X159177688Y-110568412D02*
X159185427Y-110562420D01*
X159185427Y-110562420D02*
X159305253Y-110708795D01*
X159305253Y-110708795D02*
X159359507Y-111293640D01*
X159359507Y-111293640D02*
X159613654Y-111293640D01*
X159613654Y-111293640D02*
X159630655Y-110901854D01*
X159630655Y-110901854D02*
X159675410Y-110572673D01*
X159675410Y-110572673D02*
X159678214Y-110209883D01*
X159678214Y-110209883D02*
X159552427Y-110001761D01*
X159552427Y-110001761D02*
X159324282Y-109978218D01*
X159324282Y-109978218D02*
X159201413Y-110032195D01*
X159201413Y-110032195D02*
X159201413Y-110032195D01*
G36*
X159648587Y-112762299D02*
G01*
X159670456Y-112915576D01*
X159682968Y-113190248D01*
X159600477Y-113303930D01*
X159391167Y-113326333D01*
X159281669Y-113312327D01*
X158965655Y-113051394D01*
X158765769Y-112486546D01*
X158696025Y-111651553D01*
X158696047Y-111633000D01*
X159053213Y-111633000D01*
X159054104Y-111755434D01*
X159098697Y-112412887D01*
X159185308Y-112737194D01*
X159278776Y-112666947D01*
X159343937Y-112140736D01*
X159359507Y-111293640D01*
X159305253Y-110708795D01*
X159185427Y-110562420D01*
X159177688Y-110568412D01*
X159082626Y-110877669D01*
X159053213Y-111633000D01*
X158696047Y-111633000D01*
X158696054Y-111627127D01*
X158746616Y-110836542D01*
X158907964Y-110327662D01*
X159201413Y-110032195D01*
X159324282Y-109978218D01*
X159552427Y-110001761D01*
X159678214Y-110209883D01*
X159675410Y-110572673D01*
X159630655Y-110901854D01*
X159613654Y-111293640D01*
X159588801Y-111866377D01*
X159648587Y-112762299D01*
G37*
X159648587Y-112762299D02*
X159670456Y-112915576D01*
X159682968Y-113190248D01*
X159600477Y-113303930D01*
X159391167Y-113326333D01*
X159281669Y-113312327D01*
X158965655Y-113051394D01*
X158765769Y-112486546D01*
X158696025Y-111651553D01*
X158696047Y-111633000D01*
X159053213Y-111633000D01*
X159054104Y-111755434D01*
X159098697Y-112412887D01*
X159185308Y-112737194D01*
X159278776Y-112666947D01*
X159343937Y-112140736D01*
X159359507Y-111293640D01*
X159305253Y-110708795D01*
X159185427Y-110562420D01*
X159177688Y-110568412D01*
X159082626Y-110877669D01*
X159053213Y-111633000D01*
X158696047Y-111633000D01*
X158696054Y-111627127D01*
X158746616Y-110836542D01*
X158907964Y-110327662D01*
X159201413Y-110032195D01*
X159324282Y-109978218D01*
X159552427Y-110001761D01*
X159678214Y-110209883D01*
X159675410Y-110572673D01*
X159630655Y-110901854D01*
X159613654Y-111293640D01*
X159588801Y-111866377D01*
X159648587Y-112762299D01*
X149037800Y-112644178D02*
X149051661Y-112982679D01*
X149051661Y-112982679D02*
X149156143Y-113261657D01*
X149156143Y-113261657D02*
X149237111Y-113138827D01*
X149237111Y-113138827D02*
X149250400Y-112926518D01*
X149250400Y-112926518D02*
X149186491Y-112537744D01*
X149186491Y-112537744D02*
X149124723Y-112479666D01*
X149124723Y-112479666D02*
X149037800Y-112644178D01*
X149037800Y-112644178D02*
X149037800Y-112644178D01*
G36*
X149186491Y-112537744D02*
G01*
X149250400Y-112926518D01*
X149237111Y-113138827D01*
X149156143Y-113261657D01*
X149051661Y-112982679D01*
X149037800Y-112644178D01*
X149124723Y-112479666D01*
X149186491Y-112537744D01*
G37*
X149186491Y-112537744D02*
X149250400Y-112926518D01*
X149237111Y-113138827D01*
X149156143Y-113261657D01*
X149051661Y-112982679D01*
X149037800Y-112644178D01*
X149124723Y-112479666D01*
X149186491Y-112537744D01*
X148053760Y-110082186D02*
X148030010Y-110164808D01*
X148030010Y-110164808D02*
X148035580Y-110558203D01*
X148035580Y-110558203D02*
X148071056Y-110799808D01*
X148071056Y-110799808D02*
X148147413Y-111046349D01*
X148147413Y-111046349D02*
X148191495Y-110856888D01*
X148191495Y-110856888D02*
X148297911Y-110540133D01*
X148297911Y-110540133D02*
X148459697Y-110529107D01*
X148459697Y-110529107D02*
X148605182Y-110791089D01*
X148605182Y-110791089D02*
X148655088Y-111068555D01*
X148655088Y-111068555D02*
X148677528Y-111912452D01*
X148677528Y-111912452D02*
X148602179Y-112544953D01*
X148602179Y-112544953D02*
X148460264Y-112864425D01*
X148460264Y-112864425D02*
X148283005Y-112769235D01*
X148283005Y-112769235D02*
X148197821Y-112557026D01*
X148197821Y-112557026D02*
X148085870Y-112225925D01*
X148085870Y-112225925D02*
X148057369Y-112296403D01*
X148057369Y-112296403D02*
X148071054Y-112620777D01*
X148071054Y-112620777D02*
X148141957Y-113044428D01*
X148141957Y-113044428D02*
X148320433Y-113235730D01*
X148320433Y-113235730D02*
X148377936Y-113254450D01*
X148377936Y-113254450D02*
X148608009Y-113220146D01*
X148608009Y-113220146D02*
X148787197Y-113042477D01*
X148787197Y-113042477D02*
X148793994Y-113028760D01*
X148793994Y-113028760D02*
X148901218Y-112511706D01*
X148901218Y-112511706D02*
X148931712Y-111735400D01*
X148931712Y-111735400D02*
X148886035Y-110933626D01*
X148886035Y-110933626D02*
X148787744Y-110406740D01*
X148787744Y-110406740D02*
X148633033Y-110128350D01*
X148633033Y-110128350D02*
X148416762Y-109967933D01*
X148416762Y-109967933D02*
X148202486Y-109945781D01*
X148202486Y-109945781D02*
X148053760Y-110082186D01*
X148053760Y-110082186D02*
X148053760Y-110082186D01*
G36*
X148416762Y-109967933D02*
G01*
X148633033Y-110128350D01*
X148787744Y-110406740D01*
X148886035Y-110933626D01*
X148931712Y-111735400D01*
X148901218Y-112511706D01*
X148793994Y-113028760D01*
X148787197Y-113042477D01*
X148608009Y-113220146D01*
X148377936Y-113254450D01*
X148320433Y-113235730D01*
X148141957Y-113044428D01*
X148071054Y-112620777D01*
X148057369Y-112296403D01*
X148085870Y-112225925D01*
X148197821Y-112557026D01*
X148283005Y-112769235D01*
X148460264Y-112864425D01*
X148602179Y-112544953D01*
X148677528Y-111912452D01*
X148655088Y-111068555D01*
X148605182Y-110791089D01*
X148459697Y-110529107D01*
X148297911Y-110540133D01*
X148191495Y-110856888D01*
X148147413Y-111046349D01*
X148071056Y-110799808D01*
X148035580Y-110558203D01*
X148030010Y-110164808D01*
X148053760Y-110082186D01*
X148202486Y-109945781D01*
X148416762Y-109967933D01*
G37*
X148416762Y-109967933D02*
X148633033Y-110128350D01*
X148787744Y-110406740D01*
X148886035Y-110933626D01*
X148931712Y-111735400D01*
X148901218Y-112511706D01*
X148793994Y-113028760D01*
X148787197Y-113042477D01*
X148608009Y-113220146D01*
X148377936Y-113254450D01*
X148320433Y-113235730D01*
X148141957Y-113044428D01*
X148071054Y-112620777D01*
X148057369Y-112296403D01*
X148085870Y-112225925D01*
X148197821Y-112557026D01*
X148283005Y-112769235D01*
X148460264Y-112864425D01*
X148602179Y-112544953D01*
X148677528Y-111912452D01*
X148655088Y-111068555D01*
X148605182Y-110791089D01*
X148459697Y-110529107D01*
X148297911Y-110540133D01*
X148191495Y-110856888D01*
X148147413Y-111046349D01*
X148071056Y-110799808D01*
X148035580Y-110558203D01*
X148030010Y-110164808D01*
X148053760Y-110082186D01*
X148202486Y-109945781D01*
X148416762Y-109967933D01*
X151577799Y-109964166D02*
X151446371Y-110070092D01*
X151446371Y-110070092D02*
X151398182Y-110306088D01*
X151398182Y-110306088D02*
X151393525Y-110504111D01*
X151393525Y-110504111D02*
X151429063Y-110995455D01*
X151429063Y-110995455D02*
X151529954Y-110978591D01*
X151529954Y-110978591D02*
X151615775Y-110729888D01*
X151615775Y-110729888D02*
X151676730Y-110631830D01*
X151676730Y-110631830D02*
X151705377Y-110958444D01*
X151705377Y-110958444D02*
X151711025Y-111553037D01*
X151711025Y-111553037D02*
X151688458Y-112342315D01*
X151688458Y-112342315D02*
X151630508Y-112811764D01*
X151630508Y-112811764D02*
X151611807Y-112857200D01*
X151611807Y-112857200D02*
X151621190Y-112938039D01*
X151621190Y-112938039D02*
X151756199Y-112984371D01*
X151756199Y-112984371D02*
X151869775Y-112989092D01*
X151869775Y-112989092D02*
X152050024Y-112959333D01*
X152050024Y-112959333D02*
X152113952Y-112895007D01*
X152113952Y-112895007D02*
X152088057Y-112849568D01*
X152088057Y-112849568D02*
X151990695Y-112582286D01*
X151990695Y-112582286D02*
X151951655Y-111939613D01*
X151951655Y-111939613D02*
X151949150Y-111602376D01*
X151949150Y-111602376D02*
X151956453Y-110901390D01*
X151956453Y-110901390D02*
X151993088Y-110650702D01*
X151993088Y-110650702D02*
X152081147Y-110736754D01*
X152081147Y-110736754D02*
X152107900Y-110786333D01*
X152107900Y-110786333D02*
X152228279Y-110939251D01*
X152228279Y-110939251D02*
X152265327Y-110677142D01*
X152265327Y-110677142D02*
X152266650Y-110514040D01*
X152266650Y-110514040D02*
X152248456Y-110182491D01*
X152248456Y-110182491D02*
X152168682Y-110009769D01*
X152168682Y-110009769D02*
X151989541Y-109946159D01*
X151989541Y-109946159D02*
X151830088Y-109939666D01*
X151830088Y-109939666D02*
X151577799Y-109964166D01*
X151577799Y-109964166D02*
X151577799Y-109964166D01*
G36*
X151989541Y-109946159D02*
G01*
X152168682Y-110009769D01*
X152248456Y-110182491D01*
X152266650Y-110514040D01*
X152265327Y-110677142D01*
X152228279Y-110939251D01*
X152107900Y-110786333D01*
X152081147Y-110736754D01*
X151993088Y-110650702D01*
X151956453Y-110901390D01*
X151949150Y-111602376D01*
X151951655Y-111939613D01*
X151990695Y-112582286D01*
X152088057Y-112849568D01*
X152113952Y-112895007D01*
X152050024Y-112959333D01*
X151869775Y-112989092D01*
X151756199Y-112984371D01*
X151621190Y-112938039D01*
X151611807Y-112857200D01*
X151630508Y-112811764D01*
X151688458Y-112342315D01*
X151711025Y-111553037D01*
X151705377Y-110958444D01*
X151676730Y-110631830D01*
X151615775Y-110729888D01*
X151529954Y-110978591D01*
X151429063Y-110995455D01*
X151393525Y-110504111D01*
X151398182Y-110306088D01*
X151446371Y-110070092D01*
X151577799Y-109964166D01*
X151830088Y-109939666D01*
X151989541Y-109946159D01*
G37*
X151989541Y-109946159D02*
X152168682Y-110009769D01*
X152248456Y-110182491D01*
X152266650Y-110514040D01*
X152265327Y-110677142D01*
X152228279Y-110939251D01*
X152107900Y-110786333D01*
X152081147Y-110736754D01*
X151993088Y-110650702D01*
X151956453Y-110901390D01*
X151949150Y-111602376D01*
X151951655Y-111939613D01*
X151990695Y-112582286D01*
X152088057Y-112849568D01*
X152113952Y-112895007D01*
X152050024Y-112959333D01*
X151869775Y-112989092D01*
X151756199Y-112984371D01*
X151621190Y-112938039D01*
X151611807Y-112857200D01*
X151630508Y-112811764D01*
X151688458Y-112342315D01*
X151711025Y-111553037D01*
X151705377Y-110958444D01*
X151676730Y-110631830D01*
X151615775Y-110729888D01*
X151529954Y-110978591D01*
X151429063Y-110995455D01*
X151393525Y-110504111D01*
X151398182Y-110306088D01*
X151446371Y-110070092D01*
X151577799Y-109964166D01*
X151830088Y-109939666D01*
X151989541Y-109946159D01*
X146642178Y-109999345D02*
X146520466Y-110297716D01*
X146520466Y-110297716D02*
X146404112Y-110897147D01*
X146404112Y-110897147D02*
X146400557Y-110923103D01*
X146400557Y-110923103D02*
X146287942Y-111758527D01*
X146287942Y-111758527D02*
X146203711Y-111060763D01*
X146203711Y-111060763D02*
X146075585Y-110267680D01*
X146075585Y-110267680D02*
X145958463Y-110016312D01*
X145958463Y-110016312D02*
X145865191Y-110283966D01*
X145865191Y-110283966D02*
X145808611Y-111047952D01*
X145808611Y-111047952D02*
X145797588Y-111778243D01*
X145797588Y-111778243D02*
X145803613Y-112668781D01*
X145803613Y-112668781D02*
X145832088Y-113132124D01*
X145832088Y-113132124D02*
X145898607Y-113304992D01*
X145898607Y-113304992D02*
X145974197Y-113326390D01*
X145974197Y-113326390D02*
X146092727Y-113251223D01*
X146092727Y-113251223D02*
X146127547Y-112915806D01*
X146127547Y-112915806D02*
X146114509Y-112409111D01*
X146114509Y-112409111D02*
X146078211Y-111491888D01*
X146078211Y-111491888D02*
X146171504Y-112268000D01*
X146171504Y-112268000D02*
X146266437Y-112887384D01*
X146266437Y-112887384D02*
X146347396Y-112962088D01*
X146347396Y-112962088D02*
X146429469Y-112486130D01*
X146429469Y-112486130D02*
X146464869Y-112151679D01*
X146464869Y-112151679D02*
X146543397Y-111588356D01*
X146543397Y-111588356D02*
X146607045Y-111444134D01*
X146607045Y-111444134D02*
X146624171Y-111729835D01*
X146624171Y-111729835D02*
X146599535Y-112105620D01*
X146599535Y-112105620D02*
X146550036Y-112670417D01*
X146550036Y-112670417D02*
X146532756Y-112874876D01*
X146532756Y-112874876D02*
X146582550Y-113107375D01*
X146582550Y-113107375D02*
X146690557Y-113225883D01*
X146690557Y-113225883D02*
X146828757Y-113203691D01*
X146828757Y-113203691D02*
X146869150Y-113058996D01*
X146869150Y-113058996D02*
X146811031Y-112683619D01*
X146811031Y-112683619D02*
X146780618Y-112600655D01*
X146780618Y-112600655D02*
X146729614Y-112191005D01*
X146729614Y-112191005D02*
X146725827Y-111374335D01*
X146725827Y-111374335D02*
X146731635Y-111158560D01*
X146731635Y-111158560D02*
X146747192Y-110385392D01*
X146747192Y-110385392D02*
X146722142Y-110039956D01*
X146722142Y-110039956D02*
X146646768Y-109996326D01*
X146646768Y-109996326D02*
X146642178Y-109999345D01*
X146642178Y-109999345D02*
X146642178Y-109999345D01*
G36*
X146722142Y-110039956D02*
G01*
X146747192Y-110385392D01*
X146731635Y-111158560D01*
X146725827Y-111374335D01*
X146729614Y-112191005D01*
X146780618Y-112600655D01*
X146811031Y-112683619D01*
X146869150Y-113058996D01*
X146828757Y-113203691D01*
X146690557Y-113225883D01*
X146582550Y-113107375D01*
X146532756Y-112874876D01*
X146550036Y-112670417D01*
X146599535Y-112105620D01*
X146624171Y-111729835D01*
X146607045Y-111444134D01*
X146543397Y-111588356D01*
X146464869Y-112151679D01*
X146429469Y-112486130D01*
X146347396Y-112962088D01*
X146266437Y-112887384D01*
X146171504Y-112268000D01*
X146078211Y-111491888D01*
X146114509Y-112409111D01*
X146127547Y-112915806D01*
X146092727Y-113251223D01*
X145974197Y-113326390D01*
X145898607Y-113304992D01*
X145832088Y-113132124D01*
X145803613Y-112668781D01*
X145797588Y-111778243D01*
X145808611Y-111047952D01*
X145865191Y-110283966D01*
X145958463Y-110016312D01*
X146075585Y-110267680D01*
X146203711Y-111060763D01*
X146287942Y-111758527D01*
X146400557Y-110923103D01*
X146404112Y-110897147D01*
X146520466Y-110297716D01*
X146642178Y-109999345D01*
X146646768Y-109996326D01*
X146722142Y-110039956D01*
G37*
X146722142Y-110039956D02*
X146747192Y-110385392D01*
X146731635Y-111158560D01*
X146725827Y-111374335D01*
X146729614Y-112191005D01*
X146780618Y-112600655D01*
X146811031Y-112683619D01*
X146869150Y-113058996D01*
X146828757Y-113203691D01*
X146690557Y-113225883D01*
X146582550Y-113107375D01*
X146532756Y-112874876D01*
X146550036Y-112670417D01*
X146599535Y-112105620D01*
X146624171Y-111729835D01*
X146607045Y-111444134D01*
X146543397Y-111588356D01*
X146464869Y-112151679D01*
X146429469Y-112486130D01*
X146347396Y-112962088D01*
X146266437Y-112887384D01*
X146171504Y-112268000D01*
X146078211Y-111491888D01*
X146114509Y-112409111D01*
X146127547Y-112915806D01*
X146092727Y-113251223D01*
X145974197Y-113326390D01*
X145898607Y-113304992D01*
X145832088Y-113132124D01*
X145803613Y-112668781D01*
X145797588Y-111778243D01*
X145808611Y-111047952D01*
X145865191Y-110283966D01*
X145958463Y-110016312D01*
X146075585Y-110267680D01*
X146203711Y-111060763D01*
X146287942Y-111758527D01*
X146400557Y-110923103D01*
X146404112Y-110897147D01*
X146520466Y-110297716D01*
X146642178Y-109999345D01*
X146646768Y-109996326D01*
X146722142Y-110039956D01*
X155737045Y-109173405D02*
X155526426Y-109320433D01*
X155526426Y-109320433D02*
X155486505Y-109368236D01*
X155486505Y-109368236D02*
X155314126Y-109791226D01*
X155314126Y-109791226D02*
X155277074Y-110331592D01*
X155277074Y-110331592D02*
X155364779Y-110884193D01*
X155364779Y-110884193D02*
X155566676Y-111343889D01*
X155566676Y-111343889D02*
X155700813Y-111500464D01*
X155700813Y-111500464D02*
X155906849Y-111777818D01*
X155906849Y-111777818D02*
X155961576Y-112130782D01*
X155961576Y-112130782D02*
X155882722Y-112564427D01*
X155882722Y-112564427D02*
X155809457Y-112967167D01*
X155809457Y-112967167D02*
X155815847Y-113151624D01*
X155815847Y-113151624D02*
X155922941Y-113280831D01*
X155922941Y-113280831D02*
X156104285Y-113324621D01*
X156104285Y-113324621D02*
X156297102Y-113290375D01*
X156297102Y-113290375D02*
X156438612Y-113185474D01*
X156438612Y-113185474D02*
X156473525Y-113074305D01*
X156473525Y-113074305D02*
X156410358Y-112765784D01*
X156410358Y-112765784D02*
X156354463Y-112659829D01*
X156354463Y-112659829D02*
X156274381Y-112324383D01*
X156274381Y-112324383D02*
X156238620Y-111550211D01*
X156238620Y-111550211D02*
X156235400Y-111077413D01*
X156235400Y-111077413D02*
X156240238Y-110735406D01*
X156240238Y-110735406D02*
X155996060Y-110735406D01*
X155996060Y-110735406D02*
X155941898Y-111006184D01*
X155941898Y-111006184D02*
X155818534Y-111013251D01*
X155818534Y-111013251D02*
X155688759Y-110806509D01*
X155688759Y-110806509D02*
X155615361Y-110435862D01*
X155615361Y-110435862D02*
X155615189Y-110432702D01*
X155615189Y-110432702D02*
X155648867Y-109957845D01*
X155648867Y-109957845D02*
X155763711Y-109722561D01*
X155763711Y-109722561D02*
X155890375Y-109830721D01*
X155890375Y-109830721D02*
X155924696Y-109969097D01*
X155924696Y-109969097D02*
X155988874Y-110539917D01*
X155988874Y-110539917D02*
X155996060Y-110735406D01*
X155996060Y-110735406D02*
X156240238Y-110735406D01*
X156240238Y-110735406D02*
X156247998Y-110186914D01*
X156247998Y-110186914D02*
X156291656Y-109750359D01*
X156291656Y-109750359D02*
X156354463Y-109657444D01*
X156354463Y-109657444D02*
X156460093Y-109505052D01*
X156460093Y-109505052D02*
X156473525Y-109375222D01*
X156473525Y-109375222D02*
X156403057Y-109206970D01*
X156403057Y-109206970D02*
X156224237Y-109117020D01*
X156224237Y-109117020D02*
X155985940Y-109105716D01*
X155985940Y-109105716D02*
X155737045Y-109173405D01*
X155737045Y-109173405D02*
X155737045Y-109173405D01*
G36*
X156238620Y-111550211D02*
G01*
X156274381Y-112324383D01*
X156354463Y-112659829D01*
X156410358Y-112765784D01*
X156473525Y-113074305D01*
X156438612Y-113185474D01*
X156297102Y-113290375D01*
X156104285Y-113324621D01*
X155922941Y-113280831D01*
X155815847Y-113151624D01*
X155809457Y-112967167D01*
X155882722Y-112564427D01*
X155961576Y-112130782D01*
X155906849Y-111777818D01*
X155700813Y-111500464D01*
X155566676Y-111343889D01*
X155364779Y-110884193D01*
X155293121Y-110432702D01*
X155615189Y-110432702D01*
X155615361Y-110435862D01*
X155688759Y-110806509D01*
X155818534Y-111013251D01*
X155941898Y-111006184D01*
X155996060Y-110735406D01*
X155988874Y-110539917D01*
X155924696Y-109969097D01*
X155890375Y-109830721D01*
X155763711Y-109722561D01*
X155648867Y-109957845D01*
X155615189Y-110432702D01*
X155293121Y-110432702D01*
X155277074Y-110331592D01*
X155314126Y-109791226D01*
X155486505Y-109368236D01*
X155526426Y-109320433D01*
X155737045Y-109173405D01*
X155985940Y-109105716D01*
X156224237Y-109117020D01*
X156403057Y-109206970D01*
X156473525Y-109375222D01*
X156460093Y-109505052D01*
X156354463Y-109657444D01*
X156291656Y-109750359D01*
X156247998Y-110186914D01*
X156240238Y-110735406D01*
X156235400Y-111077413D01*
X156238620Y-111550211D01*
G37*
X156238620Y-111550211D02*
X156274381Y-112324383D01*
X156354463Y-112659829D01*
X156410358Y-112765784D01*
X156473525Y-113074305D01*
X156438612Y-113185474D01*
X156297102Y-113290375D01*
X156104285Y-113324621D01*
X155922941Y-113280831D01*
X155815847Y-113151624D01*
X155809457Y-112967167D01*
X155882722Y-112564427D01*
X155961576Y-112130782D01*
X155906849Y-111777818D01*
X155700813Y-111500464D01*
X155566676Y-111343889D01*
X155364779Y-110884193D01*
X155293121Y-110432702D01*
X155615189Y-110432702D01*
X155615361Y-110435862D01*
X155688759Y-110806509D01*
X155818534Y-111013251D01*
X155941898Y-111006184D01*
X155996060Y-110735406D01*
X155988874Y-110539917D01*
X155924696Y-109969097D01*
X155890375Y-109830721D01*
X155763711Y-109722561D01*
X155648867Y-109957845D01*
X155615189Y-110432702D01*
X155293121Y-110432702D01*
X155277074Y-110331592D01*
X155314126Y-109791226D01*
X155486505Y-109368236D01*
X155526426Y-109320433D01*
X155737045Y-109173405D01*
X155985940Y-109105716D01*
X156224237Y-109117020D01*
X156403057Y-109206970D01*
X156473525Y-109375222D01*
X156460093Y-109505052D01*
X156354463Y-109657444D01*
X156291656Y-109750359D01*
X156247998Y-110186914D01*
X156240238Y-110735406D01*
X156235400Y-111077413D01*
X156238620Y-111550211D01*
X156959055Y-109996396D02*
X156723534Y-110101447D01*
X156723534Y-110101447D02*
X156605110Y-110319555D01*
X156605110Y-110319555D02*
X156565754Y-110645222D01*
X156565754Y-110645222D02*
X156561120Y-111021048D01*
X156561120Y-111021048D02*
X156623633Y-110913055D01*
X156623633Y-110913055D02*
X156640446Y-110856888D01*
X156640446Y-110856888D02*
X156791173Y-110556089D01*
X156791173Y-110556089D02*
X156939758Y-110546615D01*
X156939758Y-110546615D02*
X157024940Y-110817347D01*
X157024940Y-110817347D02*
X157029150Y-110927444D01*
X157029150Y-110927444D02*
X156962976Y-111272205D01*
X156962976Y-111272205D02*
X156870400Y-111350777D01*
X156870400Y-111350777D02*
X156741676Y-111516103D01*
X156741676Y-111516103D02*
X156711650Y-111747689D01*
X156711650Y-111747689D02*
X156769993Y-112025011D01*
X156769993Y-112025011D02*
X156870400Y-111996995D01*
X156870400Y-111996995D02*
X157000466Y-112015812D01*
X157000466Y-112015812D02*
X157029150Y-112305639D01*
X157029150Y-112305639D02*
X156969409Y-112666333D01*
X156969409Y-112666333D02*
X156831714Y-112743345D01*
X156831714Y-112743345D02*
X156678359Y-112517448D01*
X156678359Y-112517448D02*
X156648150Y-112423222D01*
X156648150Y-112423222D02*
X156570803Y-112251585D01*
X156570803Y-112251585D02*
X156552900Y-112534138D01*
X156552900Y-112534138D02*
X156604274Y-112911880D01*
X156604274Y-112911880D02*
X156712720Y-113233450D01*
X156712720Y-113233450D02*
X156809725Y-113303994D01*
X156809725Y-113303994D02*
X156817361Y-113286284D01*
X156817361Y-113286284D02*
X156895878Y-113216574D01*
X156895878Y-113216574D02*
X157075898Y-113090970D01*
X157075898Y-113090970D02*
X157148213Y-113044111D01*
X157148213Y-113044111D02*
X157317786Y-112913699D01*
X157317786Y-112913699D02*
X157374237Y-112821133D01*
X157374237Y-112821133D02*
X157356395Y-112801937D01*
X157356395Y-112801937D02*
X157292019Y-112626483D01*
X157292019Y-112626483D02*
X157272441Y-112093615D01*
X157272441Y-112093615D02*
X157285586Y-111336952D01*
X157285586Y-111336952D02*
X157324094Y-109912015D01*
X157324094Y-109912015D02*
X156959055Y-109996396D01*
X156959055Y-109996396D02*
X156959055Y-109996396D01*
G36*
X157285586Y-111336952D02*
G01*
X157272441Y-112093615D01*
X157292019Y-112626483D01*
X157356395Y-112801937D01*
X157374237Y-112821133D01*
X157317786Y-112913699D01*
X157148213Y-113044111D01*
X157075898Y-113090970D01*
X156895878Y-113216574D01*
X156817361Y-113286284D01*
X156809725Y-113303994D01*
X156712720Y-113233450D01*
X156604274Y-112911880D01*
X156552900Y-112534138D01*
X156570803Y-112251585D01*
X156648150Y-112423222D01*
X156678359Y-112517448D01*
X156831714Y-112743345D01*
X156969409Y-112666333D01*
X157029150Y-112305639D01*
X157000466Y-112015812D01*
X156870400Y-111996995D01*
X156769993Y-112025011D01*
X156711650Y-111747689D01*
X156741676Y-111516103D01*
X156870400Y-111350777D01*
X156962976Y-111272205D01*
X157029150Y-110927444D01*
X157024940Y-110817347D01*
X156939758Y-110546615D01*
X156791173Y-110556089D01*
X156640446Y-110856888D01*
X156623633Y-110913055D01*
X156561120Y-111021048D01*
X156565754Y-110645222D01*
X156605110Y-110319555D01*
X156723534Y-110101447D01*
X156959055Y-109996396D01*
X157324094Y-109912015D01*
X157285586Y-111336952D01*
G37*
X157285586Y-111336952D02*
X157272441Y-112093615D01*
X157292019Y-112626483D01*
X157356395Y-112801937D01*
X157374237Y-112821133D01*
X157317786Y-112913699D01*
X157148213Y-113044111D01*
X157075898Y-113090970D01*
X156895878Y-113216574D01*
X156817361Y-113286284D01*
X156809725Y-113303994D01*
X156712720Y-113233450D01*
X156604274Y-112911880D01*
X156552900Y-112534138D01*
X156570803Y-112251585D01*
X156648150Y-112423222D01*
X156678359Y-112517448D01*
X156831714Y-112743345D01*
X156969409Y-112666333D01*
X157029150Y-112305639D01*
X157000466Y-112015812D01*
X156870400Y-111996995D01*
X156769993Y-112025011D01*
X156711650Y-111747689D01*
X156741676Y-111516103D01*
X156870400Y-111350777D01*
X156962976Y-111272205D01*
X157029150Y-110927444D01*
X157024940Y-110817347D01*
X156939758Y-110546615D01*
X156791173Y-110556089D01*
X156640446Y-110856888D01*
X156623633Y-110913055D01*
X156561120Y-111021048D01*
X156565754Y-110645222D01*
X156605110Y-110319555D01*
X156723534Y-110101447D01*
X156959055Y-109996396D01*
X157324094Y-109912015D01*
X157285586Y-111336952D01*
X152703456Y-123363956D02*
X152597216Y-123437569D01*
X152597216Y-123437569D02*
X152502511Y-123541729D01*
X152502511Y-123541729D02*
X152434157Y-123661278D01*
X152434157Y-123661278D02*
X152410740Y-123740862D01*
X152410740Y-123740862D02*
X152402600Y-123924860D01*
X152402600Y-123924860D02*
X152436489Y-124098730D01*
X152436489Y-124098730D02*
X152507167Y-124247061D01*
X152507167Y-124247061D02*
X152609394Y-124354443D01*
X152609394Y-124354443D02*
X152622322Y-124363083D01*
X152622322Y-124363083D02*
X152748108Y-124417640D01*
X152748108Y-124417640D02*
X152874885Y-124430473D01*
X152874885Y-124430473D02*
X152963841Y-124407271D01*
X152963841Y-124407271D02*
X153028217Y-124357715D01*
X153028217Y-124357715D02*
X153102531Y-124277522D01*
X153102531Y-124277522D02*
X153135761Y-124233815D01*
X153135761Y-124233815D02*
X153213049Y-124080758D01*
X153213049Y-124080758D02*
X153244677Y-123917709D01*
X153244677Y-123917709D02*
X153234706Y-123755731D01*
X153234706Y-123755731D02*
X153187192Y-123605886D01*
X153187192Y-123605886D02*
X153106195Y-123479236D01*
X153106195Y-123479236D02*
X152995772Y-123386843D01*
X152995772Y-123386843D02*
X152859982Y-123339771D01*
X152859982Y-123339771D02*
X152806413Y-123336050D01*
X152806413Y-123336050D02*
X152703456Y-123363956D01*
X152703456Y-123363956D02*
X152703456Y-123363956D01*
G36*
X152859982Y-123339771D02*
G01*
X152995772Y-123386843D01*
X153106195Y-123479236D01*
X153187192Y-123605886D01*
X153234706Y-123755731D01*
X153244677Y-123917709D01*
X153213049Y-124080758D01*
X153135761Y-124233815D01*
X153102531Y-124277522D01*
X153028217Y-124357715D01*
X152963841Y-124407271D01*
X152874885Y-124430473D01*
X152748108Y-124417640D01*
X152622322Y-124363083D01*
X152609394Y-124354443D01*
X152507167Y-124247061D01*
X152436489Y-124098730D01*
X152402600Y-123924860D01*
X152410740Y-123740862D01*
X152434157Y-123661278D01*
X152502511Y-123541729D01*
X152597216Y-123437569D01*
X152703456Y-123363956D01*
X152806413Y-123336050D01*
X152859982Y-123339771D01*
G37*
X152859982Y-123339771D02*
X152995772Y-123386843D01*
X153106195Y-123479236D01*
X153187192Y-123605886D01*
X153234706Y-123755731D01*
X153244677Y-123917709D01*
X153213049Y-124080758D01*
X153135761Y-124233815D01*
X153102531Y-124277522D01*
X153028217Y-124357715D01*
X152963841Y-124407271D01*
X152874885Y-124430473D01*
X152748108Y-124417640D01*
X152622322Y-124363083D01*
X152609394Y-124354443D01*
X152507167Y-124247061D01*
X152436489Y-124098730D01*
X152402600Y-123924860D01*
X152410740Y-123740862D01*
X152434157Y-123661278D01*
X152502511Y-123541729D01*
X152597216Y-123437569D01*
X152703456Y-123363956D01*
X152806413Y-123336050D01*
X152859982Y-123339771D01*
X154820460Y-123363340D02*
X154751907Y-123412928D01*
X154751907Y-123412928D02*
X154641579Y-123545884D01*
X154641579Y-123545884D02*
X154575879Y-123716029D01*
X154575879Y-123716029D02*
X154558823Y-123911740D01*
X154558823Y-123911740D02*
X154562443Y-123961509D01*
X154562443Y-123961509D02*
X154602672Y-124130690D01*
X154602672Y-124130690D02*
X154679751Y-124268627D01*
X154679751Y-124268627D02*
X154784755Y-124368229D01*
X154784755Y-124368229D02*
X154908758Y-124422407D01*
X154908758Y-124422407D02*
X155042838Y-124424071D01*
X155042838Y-124424071D02*
X155115588Y-124400948D01*
X155115588Y-124400948D02*
X155232107Y-124316975D01*
X155232107Y-124316975D02*
X155321091Y-124188650D01*
X155321091Y-124188650D02*
X155376474Y-124031385D01*
X155376474Y-124031385D02*
X155392187Y-123860588D01*
X155392187Y-123860588D02*
X155375961Y-123739671D01*
X155375961Y-123739671D02*
X155309983Y-123567571D01*
X155309983Y-123567571D02*
X155208243Y-123440242D01*
X155208243Y-123440242D02*
X155076487Y-123363625D01*
X155076487Y-123363625D02*
X154994598Y-123345397D01*
X154994598Y-123345397D02*
X154893470Y-123341238D01*
X154893470Y-123341238D02*
X154820460Y-123363340D01*
X154820460Y-123363340D02*
X154820460Y-123363340D01*
G36*
X154994598Y-123345397D02*
G01*
X155076487Y-123363625D01*
X155208243Y-123440242D01*
X155309983Y-123567571D01*
X155375961Y-123739671D01*
X155392187Y-123860588D01*
X155376474Y-124031385D01*
X155321091Y-124188650D01*
X155232107Y-124316975D01*
X155115588Y-124400948D01*
X155042838Y-124424071D01*
X154908758Y-124422407D01*
X154784755Y-124368229D01*
X154679751Y-124268627D01*
X154602672Y-124130690D01*
X154562443Y-123961509D01*
X154558823Y-123911740D01*
X154575879Y-123716029D01*
X154641579Y-123545884D01*
X154751907Y-123412928D01*
X154820460Y-123363340D01*
X154893470Y-123341238D01*
X154994598Y-123345397D01*
G37*
X154994598Y-123345397D02*
X155076487Y-123363625D01*
X155208243Y-123440242D01*
X155309983Y-123567571D01*
X155375961Y-123739671D01*
X155392187Y-123860588D01*
X155376474Y-124031385D01*
X155321091Y-124188650D01*
X155232107Y-124316975D01*
X155115588Y-124400948D01*
X155042838Y-124424071D01*
X154908758Y-124422407D01*
X154784755Y-124368229D01*
X154679751Y-124268627D01*
X154602672Y-124130690D01*
X154562443Y-123961509D01*
X154558823Y-123911740D01*
X154575879Y-123716029D01*
X154641579Y-123545884D01*
X154751907Y-123412928D01*
X154820460Y-123363340D01*
X154893470Y-123341238D01*
X154994598Y-123345397D01*
X154577858Y-120493260D02*
X154491909Y-120533099D01*
X154491909Y-120533099D02*
X154374294Y-120591868D01*
X154374294Y-120591868D02*
X154236780Y-120663338D01*
X154236780Y-120663338D02*
X154091136Y-120741279D01*
X154091136Y-120741279D02*
X153949127Y-120819463D01*
X153949127Y-120819463D02*
X153822522Y-120891661D01*
X153822522Y-120891661D02*
X153723087Y-120951644D01*
X153723087Y-120951644D02*
X153705966Y-120962621D01*
X153705966Y-120962621D02*
X153550748Y-121074461D01*
X153550748Y-121074461D02*
X153392078Y-121207287D01*
X153392078Y-121207287D02*
X153242802Y-121348613D01*
X153242802Y-121348613D02*
X153115768Y-121485951D01*
X153115768Y-121485951D02*
X153023822Y-121606814D01*
X153023822Y-121606814D02*
X152998370Y-121650420D01*
X152998370Y-121650420D02*
X152925697Y-121852576D01*
X152925697Y-121852576D02*
X152914353Y-122051104D01*
X152914353Y-122051104D02*
X152945895Y-122193050D01*
X152945895Y-122193050D02*
X152980530Y-122296248D01*
X152980530Y-122296248D02*
X152993023Y-122353453D01*
X152993023Y-122353453D02*
X152983656Y-122378079D01*
X152983656Y-122378079D02*
X152952717Y-122383538D01*
X152952717Y-122383538D02*
X152949942Y-122383550D01*
X152949942Y-122383550D02*
X152860352Y-122398304D01*
X152860352Y-122398304D02*
X152737638Y-122436787D01*
X152737638Y-122436787D02*
X152603289Y-122490326D01*
X152603289Y-122490326D02*
X152478792Y-122550249D01*
X152478792Y-122550249D02*
X152385636Y-122607884D01*
X152385636Y-122607884D02*
X152376847Y-122614839D01*
X152376847Y-122614839D02*
X152276329Y-122717205D01*
X152276329Y-122717205D02*
X152212473Y-122835450D01*
X152212473Y-122835450D02*
X152179333Y-122985098D01*
X152179333Y-122985098D02*
X152170859Y-123152467D01*
X152170859Y-123152467D02*
X152170317Y-123383675D01*
X152170317Y-123383675D02*
X152001560Y-123456685D01*
X152001560Y-123456685D02*
X151792166Y-123570867D01*
X151792166Y-123570867D02*
X151634459Y-123712511D01*
X151634459Y-123712511D02*
X151523390Y-123881984D01*
X151523390Y-123881984D02*
X151475541Y-123992778D01*
X151475541Y-123992778D02*
X151448262Y-124100699D01*
X151448262Y-124100699D02*
X151441997Y-124218141D01*
X151441997Y-124218141D02*
X151457190Y-124357501D01*
X151457190Y-124357501D02*
X151494285Y-124531176D01*
X151494285Y-124531176D02*
X151553727Y-124751560D01*
X151553727Y-124751560D02*
X151554648Y-124754787D01*
X151554648Y-124754787D02*
X151558769Y-124802223D01*
X151558769Y-124802223D02*
X151527129Y-124832294D01*
X151527129Y-124832294D02*
X151452248Y-124857188D01*
X151452248Y-124857188D02*
X151305529Y-124915016D01*
X151305529Y-124915016D02*
X151149332Y-125005643D01*
X151149332Y-125005643D02*
X151005975Y-125113892D01*
X151005975Y-125113892D02*
X150897779Y-125224585D01*
X150897779Y-125224585D02*
X150883507Y-125243962D01*
X150883507Y-125243962D02*
X150825527Y-125345097D01*
X150825527Y-125345097D02*
X150793551Y-125454427D01*
X150793551Y-125454427D02*
X150779842Y-125579164D01*
X150779842Y-125579164D02*
X150790225Y-125797640D01*
X150790225Y-125797640D02*
X150852400Y-125987095D01*
X150852400Y-125987095D02*
X150968265Y-126149711D01*
X150968265Y-126149711D02*
X151139716Y-126287669D01*
X151139716Y-126287669D02*
X151368650Y-126403150D01*
X151368650Y-126403150D02*
X151553231Y-126468445D01*
X151553231Y-126468445D02*
X151612642Y-126484933D01*
X151612642Y-126484933D02*
X151677349Y-126498017D01*
X151677349Y-126498017D02*
X151755132Y-126508067D01*
X151755132Y-126508067D02*
X151853767Y-126515449D01*
X151853767Y-126515449D02*
X151981032Y-126520534D01*
X151981032Y-126520534D02*
X152144705Y-126523689D01*
X152144705Y-126523689D02*
X152352563Y-126525283D01*
X152352563Y-126525283D02*
X152612384Y-126525684D01*
X152612384Y-126525684D02*
X152758775Y-126525560D01*
X152758775Y-126525560D02*
X153045835Y-126524895D01*
X153045835Y-126524895D02*
X153279896Y-126523348D01*
X153279896Y-126523348D02*
X153471458Y-126520308D01*
X153471458Y-126520308D02*
X153631022Y-126515165D01*
X153631022Y-126515165D02*
X153769089Y-126507310D01*
X153769089Y-126507310D02*
X153896158Y-126496134D01*
X153896158Y-126496134D02*
X154022730Y-126481027D01*
X154022730Y-126481027D02*
X154159307Y-126461378D01*
X154159307Y-126461378D02*
X154316387Y-126436579D01*
X154316387Y-126436579D02*
X154330400Y-126434314D01*
X154330400Y-126434314D02*
X154635566Y-126389609D01*
X154635566Y-126389609D02*
X154890139Y-126363647D01*
X154890139Y-126363647D02*
X155104266Y-126356652D01*
X155104266Y-126356652D02*
X155288093Y-126368844D01*
X155288093Y-126368844D02*
X155451766Y-126400446D01*
X155451766Y-126400446D02*
X155605430Y-126451679D01*
X155605430Y-126451679D02*
X155632235Y-126462759D01*
X155632235Y-126462759D02*
X155750541Y-126507681D01*
X155750541Y-126507681D02*
X155863942Y-126536250D01*
X155863942Y-126536250D02*
X155995716Y-126552850D01*
X155995716Y-126552850D02*
X156156025Y-126561421D01*
X156156025Y-126561421D02*
X156300544Y-126563653D01*
X156300544Y-126563653D02*
X156428693Y-126560567D01*
X156428693Y-126560567D02*
X156522197Y-126552845D01*
X156522197Y-126552845D02*
X156553106Y-126546592D01*
X156553106Y-126546592D02*
X156739285Y-126462424D01*
X156739285Y-126462424D02*
X156892566Y-126346177D01*
X156892566Y-126346177D02*
X157000389Y-126208374D01*
X157000389Y-126208374D02*
X157028423Y-126148396D01*
X157028423Y-126148396D02*
X157049531Y-126050944D01*
X157049531Y-126050944D02*
X157060511Y-125911156D01*
X157060511Y-125911156D02*
X157061663Y-125749333D01*
X157061663Y-125749333D02*
X157053286Y-125585777D01*
X157053286Y-125585777D02*
X157035678Y-125440789D01*
X157035678Y-125440789D02*
X157016770Y-125357024D01*
X157016770Y-125357024D02*
X156932575Y-125153140D01*
X156932575Y-125153140D02*
X156902685Y-125114050D01*
X156902685Y-125114050D02*
X155074691Y-125114050D01*
X155074691Y-125114050D02*
X154876240Y-125314280D01*
X154876240Y-125314280D02*
X154653855Y-125511969D01*
X154653855Y-125511969D02*
X154428591Y-125661425D01*
X154428591Y-125661425D02*
X154209789Y-125756592D01*
X154209789Y-125756592D02*
X154181257Y-125764949D01*
X154181257Y-125764949D02*
X154021207Y-125799974D01*
X154021207Y-125799974D02*
X153880415Y-125806001D01*
X153880415Y-125806001D02*
X153727526Y-125783029D01*
X153727526Y-125783029D02*
X153652937Y-125764935D01*
X153652937Y-125764935D02*
X153419747Y-125673990D01*
X153419747Y-125673990D02*
X153185073Y-125523707D01*
X153185073Y-125523707D02*
X152972144Y-125335436D01*
X152972144Y-125335436D02*
X152883560Y-125240585D01*
X152883560Y-125240585D02*
X152840764Y-125179229D01*
X152840764Y-125179229D02*
X152839831Y-125145354D01*
X152839831Y-125145354D02*
X152845144Y-125140806D01*
X152845144Y-125140806D02*
X152885495Y-125134726D01*
X152885495Y-125134726D02*
X152981743Y-125129129D01*
X152981743Y-125129129D02*
X153126285Y-125124191D01*
X153126285Y-125124191D02*
X153311519Y-125120087D01*
X153311519Y-125120087D02*
X153529842Y-125116994D01*
X153529842Y-125116994D02*
X153773652Y-125115088D01*
X153773652Y-125115088D02*
X153980233Y-125114536D01*
X153980233Y-125114536D02*
X155074691Y-125114050D01*
X155074691Y-125114050D02*
X156902685Y-125114050D01*
X156902685Y-125114050D02*
X156817681Y-125002885D01*
X156817681Y-125002885D02*
X156666966Y-124901764D01*
X156666966Y-124901764D02*
X156475304Y-124845285D01*
X156475304Y-124845285D02*
X156425174Y-124838170D01*
X156425174Y-124838170D02*
X156331791Y-124824397D01*
X156331791Y-124824397D02*
X156288238Y-124806560D01*
X156288238Y-124806560D02*
X156280994Y-124776247D01*
X156280994Y-124776247D02*
X156287218Y-124752356D01*
X156287218Y-124752356D02*
X156332386Y-124579893D01*
X156332386Y-124579893D02*
X156355489Y-124401234D01*
X156355489Y-124401234D02*
X156360946Y-124225050D01*
X156360946Y-124225050D02*
X156343919Y-124006510D01*
X156343919Y-124006510D02*
X156288319Y-123832013D01*
X156288319Y-123832013D02*
X156216826Y-123732289D01*
X156216826Y-123732289D02*
X155630541Y-123732289D01*
X155630541Y-123732289D02*
X155628123Y-123878879D01*
X155628123Y-123878879D02*
X155626843Y-123923834D01*
X155626843Y-123923834D02*
X155621528Y-124079803D01*
X155621528Y-124079803D02*
X155613890Y-124188574D01*
X155613890Y-124188574D02*
X155599977Y-124266428D01*
X155599977Y-124266428D02*
X155575834Y-124329646D01*
X155575834Y-124329646D02*
X155537507Y-124394510D01*
X155537507Y-124394510D02*
X155498643Y-124451758D01*
X155498643Y-124451758D02*
X155354765Y-124617027D01*
X155354765Y-124617027D02*
X155193823Y-124724354D01*
X155193823Y-124724354D02*
X155021078Y-124772465D01*
X155021078Y-124772465D02*
X154841792Y-124760084D01*
X154841792Y-124760084D02*
X154661227Y-124685934D01*
X154661227Y-124685934D02*
X154625251Y-124663465D01*
X154625251Y-124663465D02*
X154494079Y-124541358D01*
X154494079Y-124541358D02*
X154390299Y-124374145D01*
X154390299Y-124374145D02*
X154318739Y-124176073D01*
X154318739Y-124176073D02*
X154284227Y-123961393D01*
X154284227Y-123961393D02*
X154286760Y-123886721D01*
X154286760Y-123886721D02*
X153500962Y-123886721D01*
X153500962Y-123886721D02*
X153492468Y-124061610D01*
X153492468Y-124061610D02*
X153466321Y-124213792D01*
X153466321Y-124213792D02*
X153462165Y-124228803D01*
X153462165Y-124228803D02*
X153404500Y-124367022D01*
X153404500Y-124367022D02*
X153317588Y-124506287D01*
X153317588Y-124506287D02*
X153216451Y-124626005D01*
X153216451Y-124626005D02*
X153116113Y-124705583D01*
X153116113Y-124705583D02*
X153113162Y-124707195D01*
X153113162Y-124707195D02*
X153021045Y-124744922D01*
X153021045Y-124744922D02*
X152900414Y-124779646D01*
X152900414Y-124779646D02*
X152835976Y-124793300D01*
X152835976Y-124793300D02*
X152797768Y-124786795D01*
X152797768Y-124786795D02*
X152719254Y-124766602D01*
X152719254Y-124766602D02*
X152656944Y-124748743D01*
X152656944Y-124748743D02*
X152500234Y-124677590D01*
X152500234Y-124677590D02*
X152378221Y-124570612D01*
X152378221Y-124570612D02*
X152283233Y-124454267D01*
X152283233Y-124454267D02*
X152219298Y-124342447D01*
X152219298Y-124342447D02*
X152180728Y-124217695D01*
X152180728Y-124217695D02*
X152161835Y-124062554D01*
X152161835Y-124062554D02*
X152156988Y-123891675D01*
X152156988Y-123891675D02*
X152158044Y-123739189D01*
X152158044Y-123739189D02*
X152165085Y-123631244D01*
X152165085Y-123631244D02*
X152181418Y-123548933D01*
X152181418Y-123548933D02*
X152210349Y-123473355D01*
X152210349Y-123473355D02*
X152240799Y-123412566D01*
X152240799Y-123412566D02*
X152361687Y-123234085D01*
X152361687Y-123234085D02*
X152507601Y-123101477D01*
X152507601Y-123101477D02*
X152670119Y-123018789D01*
X152670119Y-123018789D02*
X152840815Y-122990071D01*
X152840815Y-122990071D02*
X153011266Y-123019372D01*
X153011266Y-123019372D02*
X153037608Y-123029571D01*
X153037608Y-123029571D02*
X153134849Y-123090691D01*
X153134849Y-123090691D02*
X153243703Y-123190309D01*
X153243703Y-123190309D02*
X153346853Y-123310399D01*
X153346853Y-123310399D02*
X153426982Y-123432931D01*
X153426982Y-123432931D02*
X153429313Y-123437340D01*
X153429313Y-123437340D02*
X153468507Y-123553433D01*
X153468507Y-123553433D02*
X153492683Y-123710278D01*
X153492683Y-123710278D02*
X153500962Y-123886721D01*
X153500962Y-123886721D02*
X154286760Y-123886721D01*
X154286760Y-123886721D02*
X154291590Y-123744353D01*
X154291590Y-123744353D02*
X154298849Y-123700124D01*
X154298849Y-123700124D02*
X154365218Y-123472096D01*
X154365218Y-123472096D02*
X154465605Y-123286304D01*
X154465605Y-123286304D02*
X154592639Y-123144454D01*
X154592639Y-123144454D02*
X154738948Y-123048254D01*
X154738948Y-123048254D02*
X154897160Y-122999409D01*
X154897160Y-122999409D02*
X155059904Y-122999625D01*
X155059904Y-122999625D02*
X155219808Y-123050611D01*
X155219808Y-123050611D02*
X155369501Y-123154071D01*
X155369501Y-123154071D02*
X155501610Y-123311712D01*
X155501610Y-123311712D02*
X155557445Y-123408764D01*
X155557445Y-123408764D02*
X155592584Y-123483251D01*
X155592584Y-123483251D02*
X155614996Y-123550990D01*
X155614996Y-123550990D02*
X155626907Y-123628498D01*
X155626907Y-123628498D02*
X155630541Y-123732289D01*
X155630541Y-123732289D02*
X156216826Y-123732289D01*
X156216826Y-123732289D02*
X156187554Y-123691460D01*
X156187554Y-123691460D02*
X156035029Y-123574753D01*
X156035029Y-123574753D02*
X155886630Y-123498550D01*
X155886630Y-123498550D02*
X155746041Y-123435607D01*
X155746041Y-123435607D02*
X155744658Y-123092141D01*
X155744658Y-123092141D02*
X155742303Y-122931426D01*
X155742303Y-122931426D02*
X155734877Y-122816674D01*
X155734877Y-122816674D02*
X155719551Y-122730387D01*
X155719551Y-122730387D02*
X155693497Y-122655066D01*
X155693497Y-122655066D02*
X155663900Y-122592661D01*
X155663900Y-122592661D02*
X155525021Y-122386087D01*
X155525021Y-122386087D02*
X155338097Y-122209023D01*
X155338097Y-122209023D02*
X155127395Y-122079321D01*
X155127395Y-122079321D02*
X155018055Y-122022691D01*
X155018055Y-122022691D02*
X154958496Y-121972988D01*
X154958496Y-121972988D02*
X154939838Y-121912834D01*
X154939838Y-121912834D02*
X154953199Y-121824849D01*
X154953199Y-121824849D02*
X154968285Y-121767960D01*
X154968285Y-121767960D02*
X154992030Y-121630593D01*
X154992030Y-121630593D02*
X154975990Y-121510749D01*
X154975990Y-121510749D02*
X154914890Y-121394333D01*
X154914890Y-121394333D02*
X154803454Y-121267252D01*
X154803454Y-121267252D02*
X154768067Y-121233065D01*
X154768067Y-121233065D02*
X154671104Y-121138275D01*
X154671104Y-121138275D02*
X154611859Y-121067935D01*
X154611859Y-121067935D02*
X154579841Y-121005160D01*
X154579841Y-121005160D02*
X154564564Y-120933068D01*
X154564564Y-120933068D02*
X154560963Y-120899690D01*
X154560963Y-120899690D02*
X154563863Y-120753536D01*
X154563863Y-120753536D02*
X154593335Y-120614300D01*
X154593335Y-120614300D02*
X154593616Y-120613487D01*
X154593616Y-120613487D02*
X154617495Y-120533330D01*
X154617495Y-120533330D02*
X154624260Y-120485002D01*
X154624260Y-120485002D02*
X154620374Y-120478579D01*
X154620374Y-120478579D02*
X154577858Y-120493260D01*
X154577858Y-120493260D02*
X154577858Y-120493260D01*
G36*
X157016770Y-125357024D02*
G01*
X157035678Y-125440789D01*
X157053286Y-125585777D01*
X157061663Y-125749333D01*
X157060511Y-125911156D01*
X157049531Y-126050944D01*
X157028423Y-126148396D01*
X157000389Y-126208374D01*
X156892566Y-126346177D01*
X156739285Y-126462424D01*
X156553106Y-126546592D01*
X156522197Y-126552845D01*
X156428693Y-126560567D01*
X156300544Y-126563653D01*
X156156025Y-126561421D01*
X155995716Y-126552850D01*
X155863942Y-126536250D01*
X155750541Y-126507681D01*
X155632235Y-126462759D01*
X155605430Y-126451679D01*
X155451766Y-126400446D01*
X155288093Y-126368844D01*
X155104266Y-126356652D01*
X154890139Y-126363647D01*
X154635566Y-126389609D01*
X154330400Y-126434314D01*
X154316387Y-126436579D01*
X154159307Y-126461378D01*
X154022730Y-126481027D01*
X153896158Y-126496134D01*
X153769089Y-126507310D01*
X153631022Y-126515165D01*
X153471458Y-126520308D01*
X153279896Y-126523348D01*
X153045835Y-126524895D01*
X152758775Y-126525560D01*
X152612384Y-126525684D01*
X152352563Y-126525283D01*
X152144705Y-126523689D01*
X151981032Y-126520534D01*
X151853767Y-126515449D01*
X151755132Y-126508067D01*
X151677349Y-126498017D01*
X151612642Y-126484933D01*
X151553231Y-126468445D01*
X151368650Y-126403150D01*
X151139716Y-126287669D01*
X150968265Y-126149711D01*
X150852400Y-125987095D01*
X150790225Y-125797640D01*
X150779842Y-125579164D01*
X150793551Y-125454427D01*
X150825527Y-125345097D01*
X150883507Y-125243962D01*
X150897779Y-125224585D01*
X150975223Y-125145354D01*
X152839831Y-125145354D01*
X152840764Y-125179229D01*
X152883560Y-125240585D01*
X152972144Y-125335436D01*
X153185073Y-125523707D01*
X153419747Y-125673990D01*
X153652937Y-125764935D01*
X153727526Y-125783029D01*
X153880415Y-125806001D01*
X154021207Y-125799974D01*
X154181257Y-125764949D01*
X154209789Y-125756592D01*
X154428591Y-125661425D01*
X154653855Y-125511969D01*
X154876240Y-125314280D01*
X155074691Y-125114050D01*
X153980233Y-125114536D01*
X153773652Y-125115088D01*
X153529842Y-125116994D01*
X153311519Y-125120087D01*
X153126285Y-125124191D01*
X152981743Y-125129129D01*
X152885495Y-125134726D01*
X152845144Y-125140806D01*
X152839831Y-125145354D01*
X150975223Y-125145354D01*
X151005975Y-125113892D01*
X151149332Y-125005643D01*
X151305529Y-124915016D01*
X151452248Y-124857188D01*
X151527129Y-124832294D01*
X151558769Y-124802223D01*
X151554648Y-124754787D01*
X151553727Y-124751560D01*
X151494285Y-124531176D01*
X151457190Y-124357501D01*
X151441997Y-124218141D01*
X151448262Y-124100699D01*
X151475541Y-123992778D01*
X151519205Y-123891675D01*
X152156988Y-123891675D01*
X152161835Y-124062554D01*
X152180728Y-124217695D01*
X152219298Y-124342447D01*
X152283233Y-124454267D01*
X152378221Y-124570612D01*
X152500234Y-124677590D01*
X152656944Y-124748743D01*
X152719254Y-124766602D01*
X152797768Y-124786795D01*
X152835976Y-124793300D01*
X152900414Y-124779646D01*
X153021045Y-124744922D01*
X153113162Y-124707195D01*
X153116113Y-124705583D01*
X153216451Y-124626005D01*
X153317588Y-124506287D01*
X153404500Y-124367022D01*
X153462165Y-124228803D01*
X153466321Y-124213792D01*
X153492468Y-124061610D01*
X153497335Y-123961393D01*
X154284227Y-123961393D01*
X154318739Y-124176073D01*
X154390299Y-124374145D01*
X154494079Y-124541358D01*
X154625251Y-124663465D01*
X154661227Y-124685934D01*
X154841792Y-124760084D01*
X155021078Y-124772465D01*
X155193823Y-124724354D01*
X155354765Y-124617027D01*
X155498643Y-124451758D01*
X155537507Y-124394510D01*
X155575834Y-124329646D01*
X155599977Y-124266428D01*
X155613890Y-124188574D01*
X155621528Y-124079803D01*
X155626843Y-123923834D01*
X155628123Y-123878879D01*
X155630541Y-123732289D01*
X155626907Y-123628498D01*
X155614996Y-123550990D01*
X155592584Y-123483251D01*
X155557445Y-123408764D01*
X155501610Y-123311712D01*
X155369501Y-123154071D01*
X155219808Y-123050611D01*
X155059904Y-122999625D01*
X154897160Y-122999409D01*
X154738948Y-123048254D01*
X154592639Y-123144454D01*
X154465605Y-123286304D01*
X154365218Y-123472096D01*
X154298849Y-123700124D01*
X154291590Y-123744353D01*
X154286760Y-123886721D01*
X154284227Y-123961393D01*
X153497335Y-123961393D01*
X153500962Y-123886721D01*
X153492683Y-123710278D01*
X153468507Y-123553433D01*
X153429313Y-123437340D01*
X153426982Y-123432931D01*
X153346853Y-123310399D01*
X153243703Y-123190309D01*
X153134849Y-123090691D01*
X153037608Y-123029571D01*
X153011266Y-123019372D01*
X152840815Y-122990071D01*
X152670119Y-123018789D01*
X152507601Y-123101477D01*
X152361687Y-123234085D01*
X152240799Y-123412566D01*
X152210349Y-123473355D01*
X152181418Y-123548933D01*
X152165085Y-123631244D01*
X152158044Y-123739189D01*
X152156988Y-123891675D01*
X151519205Y-123891675D01*
X151523390Y-123881984D01*
X151634459Y-123712511D01*
X151792166Y-123570867D01*
X152001560Y-123456685D01*
X152170317Y-123383675D01*
X152170859Y-123152467D01*
X152179333Y-122985098D01*
X152212473Y-122835450D01*
X152276329Y-122717205D01*
X152376847Y-122614839D01*
X152385636Y-122607884D01*
X152478792Y-122550249D01*
X152603289Y-122490326D01*
X152737638Y-122436787D01*
X152860352Y-122398304D01*
X152949942Y-122383550D01*
X152952717Y-122383538D01*
X152983656Y-122378079D01*
X152993023Y-122353453D01*
X152980530Y-122296248D01*
X152945895Y-122193050D01*
X152914353Y-122051104D01*
X152925697Y-121852576D01*
X152998370Y-121650420D01*
X153023822Y-121606814D01*
X153115768Y-121485951D01*
X153242802Y-121348613D01*
X153392078Y-121207287D01*
X153550748Y-121074461D01*
X153705966Y-120962621D01*
X153723087Y-120951644D01*
X153822522Y-120891661D01*
X153949127Y-120819463D01*
X154091136Y-120741279D01*
X154236780Y-120663338D01*
X154374294Y-120591868D01*
X154491909Y-120533099D01*
X154577858Y-120493260D01*
X154620374Y-120478579D01*
X154624260Y-120485002D01*
X154617495Y-120533330D01*
X154593616Y-120613487D01*
X154593335Y-120614300D01*
X154563863Y-120753536D01*
X154560963Y-120899690D01*
X154564564Y-120933068D01*
X154579841Y-121005160D01*
X154611859Y-121067935D01*
X154671104Y-121138275D01*
X154768067Y-121233065D01*
X154803454Y-121267252D01*
X154914890Y-121394333D01*
X154975990Y-121510749D01*
X154992030Y-121630593D01*
X154968285Y-121767960D01*
X154953199Y-121824849D01*
X154939838Y-121912834D01*
X154958496Y-121972988D01*
X155018055Y-122022691D01*
X155127395Y-122079321D01*
X155338097Y-122209023D01*
X155525021Y-122386087D01*
X155663900Y-122592661D01*
X155693497Y-122655066D01*
X155719551Y-122730387D01*
X155734877Y-122816674D01*
X155742303Y-122931426D01*
X155744658Y-123092141D01*
X155746041Y-123435607D01*
X155886630Y-123498550D01*
X156035029Y-123574753D01*
X156187554Y-123691460D01*
X156216826Y-123732289D01*
X156288319Y-123832013D01*
X156343919Y-124006510D01*
X156360946Y-124225050D01*
X156355489Y-124401234D01*
X156332386Y-124579893D01*
X156287218Y-124752356D01*
X156280994Y-124776247D01*
X156288238Y-124806560D01*
X156331791Y-124824397D01*
X156425174Y-124838170D01*
X156475304Y-124845285D01*
X156666966Y-124901764D01*
X156817681Y-125002885D01*
X156902685Y-125114050D01*
X156932575Y-125153140D01*
X157016770Y-125357024D01*
G37*
X157016770Y-125357024D02*
X157035678Y-125440789D01*
X157053286Y-125585777D01*
X157061663Y-125749333D01*
X157060511Y-125911156D01*
X157049531Y-126050944D01*
X157028423Y-126148396D01*
X157000389Y-126208374D01*
X156892566Y-126346177D01*
X156739285Y-126462424D01*
X156553106Y-126546592D01*
X156522197Y-126552845D01*
X156428693Y-126560567D01*
X156300544Y-126563653D01*
X156156025Y-126561421D01*
X155995716Y-126552850D01*
X155863942Y-126536250D01*
X155750541Y-126507681D01*
X155632235Y-126462759D01*
X155605430Y-126451679D01*
X155451766Y-126400446D01*
X155288093Y-126368844D01*
X155104266Y-126356652D01*
X154890139Y-126363647D01*
X154635566Y-126389609D01*
X154330400Y-126434314D01*
X154316387Y-126436579D01*
X154159307Y-126461378D01*
X154022730Y-126481027D01*
X153896158Y-126496134D01*
X153769089Y-126507310D01*
X153631022Y-126515165D01*
X153471458Y-126520308D01*
X153279896Y-126523348D01*
X153045835Y-126524895D01*
X152758775Y-126525560D01*
X152612384Y-126525684D01*
X152352563Y-126525283D01*
X152144705Y-126523689D01*
X151981032Y-126520534D01*
X151853767Y-126515449D01*
X151755132Y-126508067D01*
X151677349Y-126498017D01*
X151612642Y-126484933D01*
X151553231Y-126468445D01*
X151368650Y-126403150D01*
X151139716Y-126287669D01*
X150968265Y-126149711D01*
X150852400Y-125987095D01*
X150790225Y-125797640D01*
X150779842Y-125579164D01*
X150793551Y-125454427D01*
X150825527Y-125345097D01*
X150883507Y-125243962D01*
X150897779Y-125224585D01*
X150975223Y-125145354D01*
X152839831Y-125145354D01*
X152840764Y-125179229D01*
X152883560Y-125240585D01*
X152972144Y-125335436D01*
X153185073Y-125523707D01*
X153419747Y-125673990D01*
X153652937Y-125764935D01*
X153727526Y-125783029D01*
X153880415Y-125806001D01*
X154021207Y-125799974D01*
X154181257Y-125764949D01*
X154209789Y-125756592D01*
X154428591Y-125661425D01*
X154653855Y-125511969D01*
X154876240Y-125314280D01*
X155074691Y-125114050D01*
X153980233Y-125114536D01*
X153773652Y-125115088D01*
X153529842Y-125116994D01*
X153311519Y-125120087D01*
X153126285Y-125124191D01*
X152981743Y-125129129D01*
X152885495Y-125134726D01*
X152845144Y-125140806D01*
X152839831Y-125145354D01*
X150975223Y-125145354D01*
X151005975Y-125113892D01*
X151149332Y-125005643D01*
X151305529Y-124915016D01*
X151452248Y-124857188D01*
X151527129Y-124832294D01*
X151558769Y-124802223D01*
X151554648Y-124754787D01*
X151553727Y-124751560D01*
X151494285Y-124531176D01*
X151457190Y-124357501D01*
X151441997Y-124218141D01*
X151448262Y-124100699D01*
X151475541Y-123992778D01*
X151519205Y-123891675D01*
X152156988Y-123891675D01*
X152161835Y-124062554D01*
X152180728Y-124217695D01*
X152219298Y-124342447D01*
X152283233Y-124454267D01*
X152378221Y-124570612D01*
X152500234Y-124677590D01*
X152656944Y-124748743D01*
X152719254Y-124766602D01*
X152797768Y-124786795D01*
X152835976Y-124793300D01*
X152900414Y-124779646D01*
X153021045Y-124744922D01*
X153113162Y-124707195D01*
X153116113Y-124705583D01*
X153216451Y-124626005D01*
X153317588Y-124506287D01*
X153404500Y-124367022D01*
X153462165Y-124228803D01*
X153466321Y-124213792D01*
X153492468Y-124061610D01*
X153497335Y-123961393D01*
X154284227Y-123961393D01*
X154318739Y-124176073D01*
X154390299Y-124374145D01*
X154494079Y-124541358D01*
X154625251Y-124663465D01*
X154661227Y-124685934D01*
X154841792Y-124760084D01*
X155021078Y-124772465D01*
X155193823Y-124724354D01*
X155354765Y-124617027D01*
X155498643Y-124451758D01*
X155537507Y-124394510D01*
X155575834Y-124329646D01*
X155599977Y-124266428D01*
X155613890Y-124188574D01*
X155621528Y-124079803D01*
X155626843Y-123923834D01*
X155628123Y-123878879D01*
X155630541Y-123732289D01*
X155626907Y-123628498D01*
X155614996Y-123550990D01*
X155592584Y-123483251D01*
X155557445Y-123408764D01*
X155501610Y-123311712D01*
X155369501Y-123154071D01*
X155219808Y-123050611D01*
X155059904Y-122999625D01*
X154897160Y-122999409D01*
X154738948Y-123048254D01*
X154592639Y-123144454D01*
X154465605Y-123286304D01*
X154365218Y-123472096D01*
X154298849Y-123700124D01*
X154291590Y-123744353D01*
X154286760Y-123886721D01*
X154284227Y-123961393D01*
X153497335Y-123961393D01*
X153500962Y-123886721D01*
X153492683Y-123710278D01*
X153468507Y-123553433D01*
X153429313Y-123437340D01*
X153426982Y-123432931D01*
X153346853Y-123310399D01*
X153243703Y-123190309D01*
X153134849Y-123090691D01*
X153037608Y-123029571D01*
X153011266Y-123019372D01*
X152840815Y-122990071D01*
X152670119Y-123018789D01*
X152507601Y-123101477D01*
X152361687Y-123234085D01*
X152240799Y-123412566D01*
X152210349Y-123473355D01*
X152181418Y-123548933D01*
X152165085Y-123631244D01*
X152158044Y-123739189D01*
X152156988Y-123891675D01*
X151519205Y-123891675D01*
X151523390Y-123881984D01*
X151634459Y-123712511D01*
X151792166Y-123570867D01*
X152001560Y-123456685D01*
X152170317Y-123383675D01*
X152170859Y-123152467D01*
X152179333Y-122985098D01*
X152212473Y-122835450D01*
X152276329Y-122717205D01*
X152376847Y-122614839D01*
X152385636Y-122607884D01*
X152478792Y-122550249D01*
X152603289Y-122490326D01*
X152737638Y-122436787D01*
X152860352Y-122398304D01*
X152949942Y-122383550D01*
X152952717Y-122383538D01*
X152983656Y-122378079D01*
X152993023Y-122353453D01*
X152980530Y-122296248D01*
X152945895Y-122193050D01*
X152914353Y-122051104D01*
X152925697Y-121852576D01*
X152998370Y-121650420D01*
X153023822Y-121606814D01*
X153115768Y-121485951D01*
X153242802Y-121348613D01*
X153392078Y-121207287D01*
X153550748Y-121074461D01*
X153705966Y-120962621D01*
X153723087Y-120951644D01*
X153822522Y-120891661D01*
X153949127Y-120819463D01*
X154091136Y-120741279D01*
X154236780Y-120663338D01*
X154374294Y-120591868D01*
X154491909Y-120533099D01*
X154577858Y-120493260D01*
X154620374Y-120478579D01*
X154624260Y-120485002D01*
X154617495Y-120533330D01*
X154593616Y-120613487D01*
X154593335Y-120614300D01*
X154563863Y-120753536D01*
X154560963Y-120899690D01*
X154564564Y-120933068D01*
X154579841Y-121005160D01*
X154611859Y-121067935D01*
X154671104Y-121138275D01*
X154768067Y-121233065D01*
X154803454Y-121267252D01*
X154914890Y-121394333D01*
X154975990Y-121510749D01*
X154992030Y-121630593D01*
X154968285Y-121767960D01*
X154953199Y-121824849D01*
X154939838Y-121912834D01*
X154958496Y-121972988D01*
X155018055Y-122022691D01*
X155127395Y-122079321D01*
X155338097Y-122209023D01*
X155525021Y-122386087D01*
X155663900Y-122592661D01*
X155693497Y-122655066D01*
X155719551Y-122730387D01*
X155734877Y-122816674D01*
X155742303Y-122931426D01*
X155744658Y-123092141D01*
X155746041Y-123435607D01*
X155886630Y-123498550D01*
X156035029Y-123574753D01*
X156187554Y-123691460D01*
X156216826Y-123732289D01*
X156288319Y-123832013D01*
X156343919Y-124006510D01*
X156360946Y-124225050D01*
X156355489Y-124401234D01*
X156332386Y-124579893D01*
X156287218Y-124752356D01*
X156280994Y-124776247D01*
X156288238Y-124806560D01*
X156331791Y-124824397D01*
X156425174Y-124838170D01*
X156475304Y-124845285D01*
X156666966Y-124901764D01*
X156817681Y-125002885D01*
X156902685Y-125114050D01*
X156932575Y-125153140D01*
X157016770Y-125357024D01*
G04 #@! TD*
M02*
