G04 #@! TF.GenerationSoftware,KiCad,Pcbnew,(6.0.1)*
G04 #@! TF.CreationDate,2022-06-04T21:41:08-05:00*
G04 #@! TF.ProjectId,Bsides-KC-2021-SAO-BP,42736964-6573-42d4-9b43-2d323032312d,rev?*
G04 #@! TF.SameCoordinates,Original*
G04 #@! TF.FileFunction,Soldermask,Bot*
G04 #@! TF.FilePolarity,Negative*
%FSLAX46Y46*%
G04 Gerber Fmt 4.6, Leading zero omitted, Abs format (unit mm)*
G04 Created by KiCad (PCBNEW (6.0.1)) date 2022-06-04 21:41:08*
%MOMM*%
%LPD*%
G01*
G04 APERTURE LIST*
G04 Aperture macros list*
%AMRoundRect*
0 Rectangle with rounded corners*
0 $1 Rounding radius*
0 $2 $3 $4 $5 $6 $7 $8 $9 X,Y pos of 4 corners*
0 Add a 4 corners polygon primitive as box body*
4,1,4,$2,$3,$4,$5,$6,$7,$8,$9,$2,$3,0*
0 Add four circle primitives for the rounded corners*
1,1,$1+$1,$2,$3*
1,1,$1+$1,$4,$5*
1,1,$1+$1,$6,$7*
1,1,$1+$1,$8,$9*
0 Add four rect primitives between the rounded corners*
20,1,$1+$1,$2,$3,$4,$5,0*
20,1,$1+$1,$4,$5,$6,$7,0*
20,1,$1+$1,$6,$7,$8,$9,0*
20,1,$1+$1,$8,$9,$2,$3,0*%
G04 Aperture macros list end*
%ADD10C,1.152495*%
%ADD11C,0.100000*%
%ADD12R,2.032000X1.524000*%
%ADD13R,2.095500X1.397000*%
%ADD14O,2.127200X2.127200*%
%ADD15RoundRect,0.200000X-0.863600X0.863600X-0.863600X-0.863600X0.863600X-0.863600X0.863600X0.863600X0*%
%ADD16C,2.127200*%
G04 APERTURE END LIST*
G04 #@! TO.C,D1*
D10*
X147515247Y-120607000D02*
G75*
G03*
X147515247Y-120607000I-576247J0D01*
G01*
D11*
X145719800Y-121927800D02*
X145719800Y-123858200D01*
X145719800Y-123858200D02*
X148158200Y-123858200D01*
X148158200Y-123858200D02*
X148158200Y-121927800D01*
X148158200Y-121927800D02*
X145719800Y-121927800D01*
G36*
X148158200Y-123858200D02*
G01*
X145719800Y-123858200D01*
X145719800Y-121927800D01*
X148158200Y-121927800D01*
X148158200Y-123858200D01*
G37*
X148158200Y-123858200D02*
X145719800Y-123858200D01*
X145719800Y-121927800D01*
X148158200Y-121927800D01*
X148158200Y-123858200D01*
X145694400Y-117305000D02*
X145694400Y-119286200D01*
X145694400Y-119286200D02*
X148183600Y-119286200D01*
X148183600Y-119286200D02*
X148183600Y-117305000D01*
X148183600Y-117305000D02*
X145694400Y-117305000D01*
G36*
X148183600Y-119286200D02*
G01*
X145694400Y-119286200D01*
X145694400Y-117305000D01*
X148183600Y-117305000D01*
X148183600Y-119286200D01*
G37*
X148183600Y-119286200D02*
X145694400Y-119286200D01*
X145694400Y-117305000D01*
X148183600Y-117305000D01*
X148183600Y-119286200D01*
G04 #@! TD*
D12*
G04 #@! TO.C,D1*
X146939000Y-118321000D03*
D13*
X146939000Y-122893000D03*
G04 #@! TD*
D14*
G04 #@! TO.C,X1*
X151482100Y-130017200D03*
D15*
X151482100Y-132557200D03*
D14*
X154022100Y-130017200D03*
X154022100Y-132557200D03*
D16*
X156562100Y-130017200D03*
X156562100Y-132557200D03*
G04 #@! TD*
M02*
