G04 #@! TF.GenerationSoftware,KiCad,Pcbnew,(6.0.1)*
G04 #@! TF.CreationDate,2022-06-04T21:41:08-05:00*
G04 #@! TF.ProjectId,Bsides-KC-2021-SAO-BP,42736964-6573-42d4-9b43-2d323032312d,rev?*
G04 #@! TF.SameCoordinates,Original*
G04 #@! TF.FileFunction,Copper,L2,Bot*
G04 #@! TF.FilePolarity,Positive*
%FSLAX46Y46*%
G04 Gerber Fmt 4.6, Leading zero omitted, Abs format (unit mm)*
G04 Created by KiCad (PCBNEW (6.0.1)) date 2022-06-04 21:41:08*
%MOMM*%
%LPD*%
G01*
G04 APERTURE LIST*
%ADD10C,0.300000*%
G04 #@! TA.AperFunction,NonConductor*
%ADD11C,0.300000*%
G04 #@! TD*
G04 #@! TA.AperFunction,NonConductor*
%ADD12C,0.200000*%
G04 #@! TD*
G04 #@! TA.AperFunction,SMDPad,CuDef*
%ADD13R,2.500000X2.000000*%
G04 #@! TD*
G04 #@! TA.AperFunction,ComponentPad*
%ADD14O,1.727200X1.727200*%
G04 #@! TD*
G04 #@! TA.AperFunction,ComponentPad*
%ADD15R,1.727200X1.727200*%
G04 #@! TD*
G04 #@! TA.AperFunction,ComponentPad*
%ADD16C,1.727200*%
G04 #@! TD*
G04 #@! TA.AperFunction,Conductor*
%ADD17C,0.250000*%
G04 #@! TD*
G04 APERTURE END LIST*
D10*
D11*
X147270419Y-92006082D02*
X148198929Y-92016779D01*
X147692379Y-92582409D01*
X147906650Y-92584878D01*
X148048675Y-92657948D01*
X148119276Y-92730194D01*
X148189054Y-92873865D01*
X148184940Y-93230984D01*
X148111871Y-93373009D01*
X148039624Y-93443610D01*
X147895953Y-93513388D01*
X147467410Y-93508451D01*
X147325386Y-93435381D01*
X147254785Y-93363134D01*
X148698895Y-92022539D02*
X149627405Y-92033236D01*
X149120856Y-92598867D01*
X149335127Y-92601335D01*
X149477152Y-92674405D01*
X149547753Y-92746651D01*
X149617531Y-92890322D01*
X149613417Y-93247441D01*
X149540347Y-93389466D01*
X149468101Y-93460067D01*
X149324430Y-93529845D01*
X148895887Y-93524908D01*
X148753862Y-93451838D01*
X148683261Y-93379592D01*
X150254586Y-93397694D02*
X150325186Y-93469941D01*
X150252940Y-93540542D01*
X150182339Y-93468295D01*
X150254586Y-93397694D01*
X150252940Y-93540542D01*
X151270153Y-92052162D02*
X151413001Y-92053807D01*
X151555026Y-92126877D01*
X151625627Y-92199123D01*
X151695405Y-92342794D01*
X151763537Y-92629312D01*
X151759423Y-92986431D01*
X151684708Y-93271304D01*
X151611638Y-93413329D01*
X151539392Y-93483930D01*
X151395721Y-93553708D01*
X151252873Y-93552062D01*
X151110849Y-93478992D01*
X151040248Y-93406746D01*
X150970470Y-93263075D01*
X150902337Y-92976557D01*
X150906451Y-92619438D01*
X150981167Y-92334565D01*
X151054236Y-92192541D01*
X151126483Y-92121940D01*
X151270153Y-92052162D01*
X152270087Y-92063681D02*
X153270021Y-92075201D01*
X152609926Y-93567696D01*
X153698564Y-92080139D02*
X154627073Y-92090836D01*
X154120524Y-92656466D01*
X154334795Y-92658935D01*
X154476820Y-92732004D01*
X154547421Y-92804251D01*
X154617199Y-92947922D01*
X154613085Y-93305041D01*
X154540015Y-93447066D01*
X154467769Y-93517667D01*
X154324098Y-93587445D01*
X153895555Y-93582508D01*
X153753530Y-93509438D01*
X153682929Y-93437191D01*
X155555583Y-92101533D02*
X155698431Y-92103179D01*
X155840456Y-92176248D01*
X155911057Y-92248495D01*
X155980835Y-92392165D01*
X156048967Y-92678683D01*
X156044853Y-93035803D01*
X155970138Y-93320675D01*
X155897068Y-93462700D01*
X155824822Y-93533301D01*
X155681151Y-93603079D01*
X155538303Y-93601433D01*
X155396279Y-93528364D01*
X155325678Y-93456117D01*
X155255899Y-93312447D01*
X155187767Y-93025928D01*
X155191881Y-92668809D01*
X155266597Y-92383937D01*
X155339666Y-92241912D01*
X155411913Y-92171311D01*
X155555583Y-92101533D01*
X157823866Y-93627765D02*
X157835386Y-92627831D01*
X157833740Y-92770679D02*
X157905987Y-92700078D01*
X158049657Y-92630300D01*
X158263929Y-92632768D01*
X158405954Y-92705838D01*
X158475732Y-92849508D01*
X158466680Y-93635170D01*
X158475732Y-92849508D02*
X158548801Y-92707483D01*
X158692472Y-92637705D01*
X158906743Y-92640174D01*
X159048768Y-92713243D01*
X159118546Y-92856914D01*
X159109495Y-93642576D01*
X159823733Y-93650805D02*
X159835253Y-92650871D01*
X159833608Y-92793719D02*
X159905854Y-92723118D01*
X160049525Y-92653340D01*
X160263796Y-92655808D01*
X160405821Y-92728878D01*
X160475599Y-92872548D01*
X160466548Y-93658210D01*
X160475599Y-92872548D02*
X160548669Y-92730523D01*
X160692339Y-92660745D01*
X160906611Y-92663214D01*
X161048635Y-92736283D01*
X161118414Y-92879954D01*
X161109362Y-93665616D01*
D12*
X137432460Y-118118033D02*
X137711111Y-93931096D01*
X170503260Y-118499033D02*
X170781911Y-94312096D01*
X137704356Y-94517477D02*
X170775156Y-94898477D01*
X137704356Y-94517477D02*
X170775156Y-94898477D01*
X137704356Y-94517477D02*
X138824029Y-95116836D01*
X137704356Y-94517477D02*
X138837541Y-93944072D01*
X170775156Y-94898477D02*
X169655483Y-94299118D01*
X170775156Y-94898477D02*
X169641971Y-95471882D01*
D10*
D11*
X186894838Y-114729276D02*
X186900583Y-115657830D01*
X186326072Y-115161375D01*
X186327398Y-115375657D01*
X186256854Y-115518953D01*
X186185869Y-115590822D01*
X186043457Y-115663133D01*
X185686321Y-115665343D01*
X185543024Y-115594799D01*
X185471155Y-115523814D01*
X185398844Y-115381402D01*
X185396193Y-114952838D01*
X185466736Y-114809542D01*
X185537721Y-114737673D01*
X186761264Y-116230131D02*
X186833133Y-116301117D01*
X186905444Y-116443529D01*
X186907654Y-116800665D01*
X186837111Y-116943962D01*
X186766125Y-117015831D01*
X186623713Y-117088142D01*
X186480859Y-117089026D01*
X186266135Y-117018924D01*
X185403705Y-116167101D01*
X185409451Y-117095655D01*
X185556282Y-117737616D02*
X185485297Y-117809485D01*
X185413428Y-117738499D01*
X185484413Y-117666630D01*
X185556282Y-117737616D01*
X185413428Y-117738499D01*
X186276299Y-118661750D02*
X186346843Y-118518454D01*
X186417828Y-118446584D01*
X186560241Y-118374273D01*
X186631668Y-118373831D01*
X186774964Y-118444375D01*
X186846833Y-118515360D01*
X186919144Y-118657773D01*
X186920912Y-118943481D01*
X186850369Y-119086778D01*
X186779383Y-119158647D01*
X186636971Y-119230958D01*
X186565544Y-119231400D01*
X186422247Y-119160856D01*
X186350378Y-119089871D01*
X186278067Y-118947459D01*
X186276299Y-118661750D01*
X186203988Y-118519337D01*
X186132119Y-118448352D01*
X185988823Y-118377809D01*
X185703114Y-118379577D01*
X185560702Y-118451888D01*
X185489716Y-118523757D01*
X185419173Y-118667053D01*
X185420941Y-118952762D01*
X185493252Y-119095174D01*
X185565121Y-119166160D01*
X185708417Y-119236703D01*
X185994126Y-119234935D01*
X186136539Y-119162624D01*
X186207524Y-119090755D01*
X186278067Y-118947459D01*
X186430644Y-120517973D02*
X185430663Y-120524160D01*
X186999852Y-120157302D02*
X185926234Y-119806795D01*
X185931979Y-120735348D01*
X186792199Y-121230036D02*
X186864069Y-121301021D01*
X186936380Y-121443433D01*
X186938589Y-121800569D01*
X186868046Y-121943866D01*
X186797061Y-122015735D01*
X186654648Y-122088046D01*
X186511794Y-122088930D01*
X186297070Y-122018828D01*
X185434641Y-121167005D01*
X185440386Y-122095559D01*
X186302815Y-122947382D02*
X186373359Y-122804086D01*
X186444344Y-122732217D01*
X186586756Y-122659906D01*
X186658184Y-122659464D01*
X186801480Y-122730007D01*
X186873349Y-122800992D01*
X186945660Y-122943405D01*
X186947428Y-123229114D01*
X186876885Y-123372410D01*
X186805899Y-123444279D01*
X186663487Y-123516590D01*
X186592060Y-123517032D01*
X186448763Y-123446489D01*
X186376894Y-123375503D01*
X186304583Y-123233091D01*
X186302815Y-122947382D01*
X186230504Y-122804970D01*
X186158635Y-122733984D01*
X186015339Y-122663441D01*
X185729630Y-122665209D01*
X185587218Y-122737520D01*
X185516232Y-122809389D01*
X185445689Y-122952685D01*
X185447457Y-123238394D01*
X185519768Y-123380807D01*
X185591637Y-123451792D01*
X185734933Y-123522335D01*
X186020642Y-123520568D01*
X186163054Y-123448256D01*
X186234040Y-123376387D01*
X186304583Y-123233091D01*
X185460273Y-125309783D02*
X186460254Y-125303596D01*
X186317399Y-125304480D02*
X186389268Y-125375465D01*
X186461579Y-125517878D01*
X186462905Y-125732159D01*
X186392362Y-125875456D01*
X186249949Y-125947767D01*
X185464250Y-125952628D01*
X186249949Y-125947767D02*
X186393246Y-126018310D01*
X186465557Y-126160722D01*
X186466882Y-126375004D01*
X186396339Y-126518300D01*
X186253927Y-126590611D01*
X185468227Y-126595473D01*
X185472647Y-127309745D02*
X186472628Y-127303558D01*
X186329773Y-127304442D02*
X186401642Y-127375427D01*
X186473953Y-127517839D01*
X186475279Y-127732121D01*
X186404736Y-127875417D01*
X186262323Y-127947728D01*
X185476624Y-127952590D01*
X186262323Y-127947728D02*
X186405620Y-128018272D01*
X186477931Y-128160684D01*
X186479257Y-128374966D01*
X186408713Y-128518262D01*
X186266301Y-128590573D01*
X185480601Y-128595434D01*
D12*
X154436690Y-105508506D02*
X184801578Y-105320634D01*
X154639890Y-138350706D02*
X185004778Y-138162834D01*
X184215169Y-105324262D02*
X184418369Y-138166462D01*
X184215169Y-105324262D02*
X184418369Y-138166462D01*
X184215169Y-105324262D02*
X183635729Y-106454372D01*
X184215169Y-105324262D02*
X184808548Y-106447116D01*
X184418369Y-138166462D02*
X184997809Y-137036352D01*
X184418369Y-138166462D02*
X183824990Y-137043608D01*
D13*
G04 #@! TO.P,D1,1,K*
G04 #@! TO.N,GND*
X146939000Y-122907000D03*
G04 #@! TO.P,D1,2,A*
G04 #@! TO.N,VCC*
X146939000Y-118307000D03*
G04 #@! TD*
D14*
G04 #@! TO.P,X1,1,VCC*
G04 #@! TO.N,VCC*
X151482100Y-130017200D03*
D15*
G04 #@! TO.P,X1,2,GND*
G04 #@! TO.N,GND*
X151482100Y-132557200D03*
D14*
G04 #@! TO.P,X1,3,SDA*
G04 #@! TO.N,unconnected-(X1-Pad3)*
X154022100Y-130017200D03*
G04 #@! TO.P,X1,4,SCL*
G04 #@! TO.N,unconnected-(X1-Pad4)*
X154022100Y-132557200D03*
D16*
G04 #@! TO.P,X1,5,GPIO1*
G04 #@! TO.N,unconnected-(X1-Pad5)*
X156562100Y-130017200D03*
G04 #@! TO.P,X1,6,GPIO2*
G04 #@! TO.N,unconnected-(X1-Pad6)*
X156562100Y-132557200D03*
G04 #@! TD*
D17*
G04 #@! TO.N,VCC*
X151482100Y-130017200D02*
X151482100Y-122942600D01*
X151482100Y-122942600D02*
X146977100Y-118437600D01*
G04 #@! TD*
G04 #@! TA.AperFunction,Conductor*
G04 #@! TO.N,GND*
G36*
X154270701Y-106020400D02*
G01*
X156899008Y-106317944D01*
X156910260Y-106319737D01*
X159297154Y-106811880D01*
X159316104Y-106817364D01*
X161402977Y-107603010D01*
X161412946Y-107607261D01*
X163655157Y-108679623D01*
X163680953Y-108696078D01*
X165061337Y-109834290D01*
X165064290Y-109836802D01*
X166068847Y-110718852D01*
X166079877Y-110729815D01*
X167834250Y-112703485D01*
X167850773Y-112727010D01*
X169066869Y-114963756D01*
X169207624Y-115222645D01*
X169217466Y-115246140D01*
X169870006Y-117390199D01*
X169889807Y-117455260D01*
X169894878Y-117482065D01*
X170032882Y-119236688D01*
X170062549Y-119613882D01*
X170062166Y-119637676D01*
X169949225Y-120654142D01*
X169943530Y-120680073D01*
X169861300Y-120926764D01*
X169619105Y-121653351D01*
X169551797Y-121855274D01*
X169523940Y-121901866D01*
X168870971Y-122594408D01*
X168790907Y-122679324D01*
X168787162Y-122683131D01*
X167828540Y-123617173D01*
X167819384Y-123625267D01*
X167812610Y-123630693D01*
X167809328Y-123634280D01*
X167809324Y-123634284D01*
X167798187Y-123646458D01*
X167793159Y-123651646D01*
X167780059Y-123664411D01*
X167777329Y-123667957D01*
X167774281Y-123671916D01*
X167767410Y-123680098D01*
X166793288Y-124744836D01*
X166698107Y-124848871D01*
X166696335Y-124850769D01*
X165708362Y-125886934D01*
X165702838Y-125892116D01*
X165697370Y-125895510D01*
X165691381Y-125902191D01*
X165691375Y-125902196D01*
X165654430Y-125943410D01*
X165651802Y-125946253D01*
X165634269Y-125964642D01*
X165631662Y-125968298D01*
X165628818Y-125971741D01*
X165628700Y-125971643D01*
X165627883Y-125972663D01*
X165625984Y-125975143D01*
X165622740Y-125978762D01*
X165620089Y-125982841D01*
X165609107Y-125999735D01*
X165606061Y-126004208D01*
X165598172Y-126015274D01*
X165571189Y-126053123D01*
X165568301Y-126061423D01*
X165562278Y-126071778D01*
X164649067Y-127476720D01*
X164641187Y-127486323D01*
X164641532Y-127486588D01*
X164636062Y-127493702D01*
X164629637Y-127499971D01*
X164603415Y-127546495D01*
X164599308Y-127553273D01*
X164590691Y-127566530D01*
X164588805Y-127570598D01*
X164586144Y-127576337D01*
X164581596Y-127585208D01*
X164577136Y-127593120D01*
X164577129Y-127593136D01*
X164574741Y-127597372D01*
X164573030Y-127601936D01*
X164569424Y-127611551D01*
X164565766Y-127620291D01*
X164544984Y-127665115D01*
X164543646Y-127673990D01*
X164541604Y-127680786D01*
X164537415Y-127696910D01*
X164050147Y-128996290D01*
X164039566Y-129017639D01*
X164039084Y-129018721D01*
X164034306Y-129026318D01*
X164031851Y-129034956D01*
X164031850Y-129034958D01*
X164021372Y-129071821D01*
X164018152Y-129081610D01*
X164014637Y-129090984D01*
X164011037Y-129107352D01*
X164009181Y-129114718D01*
X164003739Y-129133864D01*
X164003144Y-129138701D01*
X164002603Y-129143096D01*
X164000605Y-129154769D01*
X163996522Y-129173331D01*
X163991291Y-129197112D01*
X163991901Y-129206069D01*
X163992135Y-129209505D01*
X163991482Y-129233454D01*
X163974436Y-129371954D01*
X163799520Y-130793142D01*
X163797440Y-130805188D01*
X163796613Y-130808896D01*
X163795553Y-130813647D01*
X163795237Y-130818496D01*
X163794160Y-130835000D01*
X163793484Y-130842186D01*
X163791249Y-130860349D01*
X163791338Y-130864828D01*
X163791436Y-130869794D01*
X163791194Y-130880488D01*
X163724558Y-131902243D01*
X163719044Y-131986785D01*
X163717414Y-132000366D01*
X163716555Y-132005263D01*
X163716462Y-132010120D01*
X163716461Y-132010126D01*
X163716073Y-132030290D01*
X163715829Y-132036060D01*
X163714716Y-132053144D01*
X163714403Y-132057939D01*
X163714748Y-132062403D01*
X163714748Y-132062411D01*
X163714847Y-132063690D01*
X163715198Y-132075817D01*
X163690542Y-133357969D01*
X163690446Y-133361019D01*
X163648797Y-134318924D01*
X163622207Y-134391022D01*
X163567994Y-134460415D01*
X163238021Y-134882782D01*
X163194084Y-134939021D01*
X163154531Y-134972388D01*
X161633041Y-135791652D01*
X161628098Y-135794174D01*
X159712293Y-136718466D01*
X158818622Y-137149623D01*
X158788115Y-137159786D01*
X156304622Y-137646746D01*
X156293707Y-137648393D01*
X155142718Y-137770838D01*
X155136681Y-137771334D01*
X153447302Y-137869269D01*
X153428249Y-137868930D01*
X152903149Y-137819702D01*
X151868209Y-137722676D01*
X151861205Y-137721821D01*
X150063704Y-137450965D01*
X150048366Y-137447666D01*
X150033956Y-137443613D01*
X149024795Y-137159786D01*
X148507449Y-137014282D01*
X148489424Y-137007694D01*
X147419756Y-136521482D01*
X147418245Y-136520783D01*
X146427488Y-136054544D01*
X146159667Y-135928510D01*
X146146933Y-135921597D01*
X145408353Y-135463677D01*
X144957965Y-135184436D01*
X144939401Y-135170397D01*
X144510301Y-134778611D01*
X144477449Y-134730248D01*
X144375588Y-134461705D01*
X144284290Y-134221009D01*
X144276449Y-134185702D01*
X144257250Y-133928431D01*
X144222701Y-133465469D01*
X150110501Y-133465469D01*
X150110871Y-133472290D01*
X150116395Y-133523152D01*
X150120021Y-133538404D01*
X150165176Y-133658854D01*
X150173714Y-133674449D01*
X150250215Y-133776524D01*
X150262776Y-133789085D01*
X150364851Y-133865586D01*
X150380446Y-133874124D01*
X150500894Y-133919278D01*
X150516149Y-133922905D01*
X150567014Y-133928431D01*
X150573828Y-133928800D01*
X151209985Y-133928800D01*
X151225224Y-133924325D01*
X151226429Y-133922935D01*
X151228100Y-133915252D01*
X151228100Y-132829315D01*
X151223625Y-132814076D01*
X151222235Y-132812871D01*
X151214552Y-132811200D01*
X150128616Y-132811200D01*
X150113377Y-132815675D01*
X150112172Y-132817065D01*
X150110501Y-132824748D01*
X150110501Y-133465469D01*
X144222701Y-133465469D01*
X144156868Y-132583315D01*
X144156678Y-132580263D01*
X144155358Y-132553846D01*
X144033655Y-130119794D01*
X144033692Y-130117459D01*
X144034227Y-130115103D01*
X144029782Y-130042191D01*
X144029711Y-130040915D01*
X144028469Y-130016084D01*
X144028245Y-130011600D01*
X144027849Y-130009566D01*
X144027779Y-130008795D01*
X144027720Y-130008369D01*
X144027423Y-130003504D01*
X144020904Y-129973703D01*
X144020320Y-129970879D01*
X144009202Y-129913747D01*
X144009201Y-129913745D01*
X144007487Y-129904936D01*
X144005230Y-129900567D01*
X144003782Y-129895431D01*
X143665503Y-128349017D01*
X143664828Y-128345723D01*
X143654162Y-128289864D01*
X143652478Y-128281045D01*
X143648385Y-128273050D01*
X143636036Y-128248928D01*
X143630163Y-128235612D01*
X143620678Y-128210228D01*
X143620675Y-128210223D01*
X143617534Y-128201816D01*
X143574969Y-128144895D01*
X143573944Y-128143503D01*
X143238248Y-127680786D01*
X142648665Y-126868118D01*
X142644955Y-126862714D01*
X142632272Y-126843162D01*
X142629020Y-126839527D01*
X142627512Y-126837841D01*
X142620467Y-126829107D01*
X142619701Y-126828195D01*
X142617066Y-126824563D01*
X142613947Y-126821346D01*
X142613939Y-126821336D01*
X142600175Y-126807138D01*
X142596743Y-126803453D01*
X141940371Y-126069861D01*
X141317074Y-125373236D01*
X141314529Y-125370300D01*
X140230616Y-124079928D01*
X140227278Y-124076941D01*
X140224157Y-124073721D01*
X140224527Y-124073362D01*
X140213875Y-124061808D01*
X140130527Y-123951669D01*
X145181001Y-123951669D01*
X145181371Y-123958490D01*
X145186895Y-124009352D01*
X145190521Y-124024604D01*
X145235676Y-124145054D01*
X145244214Y-124160649D01*
X145320715Y-124262724D01*
X145333276Y-124275285D01*
X145435351Y-124351786D01*
X145450946Y-124360324D01*
X145571394Y-124405478D01*
X145586649Y-124409105D01*
X145637514Y-124414631D01*
X145644328Y-124415000D01*
X146666885Y-124415000D01*
X146682124Y-124410525D01*
X146683329Y-124409135D01*
X146685000Y-124401452D01*
X146685000Y-124396884D01*
X147193000Y-124396884D01*
X147197475Y-124412123D01*
X147198865Y-124413328D01*
X147206548Y-124414999D01*
X148233669Y-124414999D01*
X148240490Y-124414629D01*
X148291352Y-124409105D01*
X148306604Y-124405479D01*
X148427054Y-124360324D01*
X148442649Y-124351786D01*
X148544724Y-124275285D01*
X148557285Y-124262724D01*
X148633786Y-124160649D01*
X148642324Y-124145054D01*
X148687478Y-124024606D01*
X148691105Y-124009351D01*
X148696631Y-123958486D01*
X148697000Y-123951672D01*
X148697000Y-123179115D01*
X148692525Y-123163876D01*
X148691135Y-123162671D01*
X148683452Y-123161000D01*
X147211115Y-123161000D01*
X147195876Y-123165475D01*
X147194671Y-123166865D01*
X147193000Y-123174548D01*
X147193000Y-124396884D01*
X146685000Y-124396884D01*
X146685000Y-123179115D01*
X146680525Y-123163876D01*
X146679135Y-123162671D01*
X146671452Y-123161000D01*
X145199116Y-123161000D01*
X145183877Y-123165475D01*
X145182672Y-123166865D01*
X145181001Y-123174548D01*
X145181001Y-123951669D01*
X140130527Y-123951669D01*
X139542284Y-123174349D01*
X139538937Y-123169711D01*
X139537830Y-123168100D01*
X138759009Y-122035270D01*
X138743440Y-122004136D01*
X138708968Y-121901867D01*
X138042901Y-119925868D01*
X138036300Y-119885621D01*
X138036300Y-119355134D01*
X145180500Y-119355134D01*
X145187255Y-119417316D01*
X145238385Y-119553705D01*
X145325739Y-119670261D01*
X145442295Y-119757615D01*
X145578684Y-119808745D01*
X145640866Y-119815500D01*
X145690491Y-119815500D01*
X145758612Y-119835502D01*
X145805105Y-119889158D01*
X145815209Y-119959432D01*
X145790623Y-120010907D01*
X145790939Y-120011065D01*
X145782867Y-120027189D01*
X145770600Y-120040400D01*
X145767375Y-120058137D01*
X145745814Y-120176725D01*
X145719800Y-120319800D01*
X145719800Y-120650000D01*
X145796000Y-121031000D01*
X145803139Y-121041470D01*
X145912605Y-121202021D01*
X145934453Y-121269572D01*
X145916313Y-121338212D01*
X145863942Y-121386148D01*
X145808500Y-121399001D01*
X145644331Y-121399001D01*
X145637510Y-121399371D01*
X145586648Y-121404895D01*
X145571396Y-121408521D01*
X145450946Y-121453676D01*
X145435351Y-121462214D01*
X145333276Y-121538715D01*
X145320715Y-121551276D01*
X145244214Y-121653351D01*
X145235676Y-121668946D01*
X145190522Y-121789394D01*
X145186895Y-121804649D01*
X145181369Y-121855514D01*
X145181000Y-121862328D01*
X145181000Y-122634885D01*
X145185475Y-122650124D01*
X145186865Y-122651329D01*
X145194548Y-122653000D01*
X148678884Y-122653000D01*
X148694123Y-122648525D01*
X148695328Y-122647135D01*
X148696999Y-122639452D01*
X148696999Y-121862331D01*
X148696629Y-121855510D01*
X148691105Y-121804648D01*
X148687479Y-121789396D01*
X148642324Y-121668946D01*
X148633786Y-121653351D01*
X148557285Y-121551276D01*
X148544724Y-121538715D01*
X148442649Y-121462214D01*
X148427054Y-121453676D01*
X148306606Y-121408522D01*
X148291351Y-121404895D01*
X148240486Y-121399369D01*
X148233672Y-121399000D01*
X148037268Y-121399000D01*
X147969147Y-121378998D01*
X147922654Y-121325342D01*
X147912550Y-121255068D01*
X147924444Y-121216905D01*
X147925170Y-121215445D01*
X147929600Y-121208800D01*
X147991444Y-121031000D01*
X148101727Y-120713935D01*
X148142998Y-120656167D01*
X148208950Y-120629881D01*
X148278643Y-120643425D01*
X148309829Y-120666234D01*
X150811695Y-123168100D01*
X150845721Y-123230412D01*
X150848600Y-123257195D01*
X150848600Y-128723559D01*
X150828598Y-128791680D01*
X150780782Y-128835321D01*
X150748435Y-128852160D01*
X150568005Y-128987630D01*
X150564433Y-128991368D01*
X150428261Y-129133864D01*
X150412124Y-129150750D01*
X150284978Y-129337140D01*
X150282804Y-129341824D01*
X150282802Y-129341827D01*
X150211502Y-129495431D01*
X150189981Y-129541793D01*
X150129685Y-129759213D01*
X150105709Y-129983562D01*
X150106006Y-129988714D01*
X150106006Y-129988718D01*
X150111718Y-130087778D01*
X150118697Y-130208814D01*
X150119834Y-130213860D01*
X150119835Y-130213866D01*
X150141084Y-130308152D01*
X150168300Y-130428920D01*
X150170242Y-130433702D01*
X150170243Y-130433706D01*
X150206922Y-130524035D01*
X150253186Y-130637969D01*
X150255885Y-130642373D01*
X150363813Y-130818496D01*
X150371075Y-130830347D01*
X150374455Y-130834249D01*
X150442834Y-130913187D01*
X150516513Y-130998245D01*
X150516514Y-130998246D01*
X150518802Y-131000887D01*
X150518257Y-131001359D01*
X150550950Y-131059776D01*
X150546625Y-131130640D01*
X150504673Y-131187917D01*
X150472346Y-131205824D01*
X150380446Y-131240276D01*
X150364851Y-131248814D01*
X150262776Y-131325315D01*
X150250215Y-131337876D01*
X150173714Y-131439951D01*
X150165176Y-131455546D01*
X150120022Y-131575994D01*
X150116395Y-131591249D01*
X150110869Y-131642114D01*
X150110500Y-131648928D01*
X150110500Y-132285085D01*
X150114975Y-132300324D01*
X150116365Y-132301529D01*
X150124048Y-132303200D01*
X151610100Y-132303200D01*
X151678221Y-132323202D01*
X151724714Y-132376858D01*
X151736100Y-132429200D01*
X151736100Y-133910684D01*
X151740575Y-133925923D01*
X151741965Y-133927128D01*
X151749648Y-133928799D01*
X152390369Y-133928799D01*
X152397190Y-133928429D01*
X152448052Y-133922905D01*
X152463304Y-133919279D01*
X152583754Y-133874124D01*
X152599349Y-133865586D01*
X152701424Y-133789085D01*
X152713985Y-133776524D01*
X152790486Y-133674449D01*
X152799024Y-133658854D01*
X152833941Y-133565715D01*
X152876583Y-133508950D01*
X152943145Y-133484251D01*
X153012494Y-133499459D01*
X153047160Y-133527447D01*
X153058802Y-133540887D01*
X153232399Y-133685010D01*
X153236851Y-133687612D01*
X153236856Y-133687615D01*
X153326191Y-133739818D01*
X153427203Y-133798845D01*
X153637984Y-133879334D01*
X153643052Y-133880365D01*
X153643055Y-133880366D01*
X153751504Y-133902430D01*
X153859081Y-133924317D01*
X153864256Y-133924507D01*
X153864258Y-133924507D01*
X154079392Y-133932396D01*
X154079396Y-133932396D01*
X154084556Y-133932585D01*
X154089676Y-133931929D01*
X154089678Y-133931929D01*
X154160120Y-133922905D01*
X154308353Y-133903916D01*
X154313302Y-133902431D01*
X154313308Y-133902430D01*
X154519513Y-133840565D01*
X154519512Y-133840565D01*
X154524463Y-133839080D01*
X154652156Y-133776524D01*
X154722431Y-133742097D01*
X154722436Y-133742094D01*
X154727082Y-133739818D01*
X154731292Y-133736815D01*
X154731297Y-133736812D01*
X154906555Y-133611801D01*
X154906559Y-133611797D01*
X154910767Y-133608796D01*
X155070587Y-133449533D01*
X155191470Y-133281307D01*
X155247464Y-133237659D01*
X155318168Y-133231213D01*
X155381132Y-133264016D01*
X155401225Y-133288999D01*
X155448375Y-133365943D01*
X155448383Y-133365953D01*
X155451075Y-133370347D01*
X155598802Y-133540887D01*
X155772399Y-133685010D01*
X155776851Y-133687612D01*
X155776856Y-133687615D01*
X155866191Y-133739818D01*
X155967203Y-133798845D01*
X156177984Y-133879334D01*
X156183052Y-133880365D01*
X156183055Y-133880366D01*
X156291504Y-133902430D01*
X156399081Y-133924317D01*
X156404256Y-133924507D01*
X156404258Y-133924507D01*
X156619392Y-133932396D01*
X156619396Y-133932396D01*
X156624556Y-133932585D01*
X156629676Y-133931929D01*
X156629678Y-133931929D01*
X156700120Y-133922905D01*
X156848353Y-133903916D01*
X156853302Y-133902431D01*
X156853308Y-133902430D01*
X157059513Y-133840565D01*
X157059512Y-133840565D01*
X157064463Y-133839080D01*
X157192156Y-133776524D01*
X157262431Y-133742097D01*
X157262436Y-133742094D01*
X157267082Y-133739818D01*
X157271292Y-133736815D01*
X157271297Y-133736812D01*
X157446555Y-133611801D01*
X157446559Y-133611797D01*
X157450767Y-133608796D01*
X157610587Y-133449533D01*
X157742250Y-133266305D01*
X157842218Y-133064035D01*
X157907808Y-132848152D01*
X157929778Y-132681274D01*
X157936821Y-132627778D01*
X157936822Y-132627772D01*
X157937258Y-132624456D01*
X157938902Y-132557200D01*
X157920415Y-132332332D01*
X157865449Y-132113504D01*
X157775480Y-131906591D01*
X157727382Y-131832243D01*
X157655734Y-131721491D01*
X157655732Y-131721488D01*
X157652926Y-131717151D01*
X157501077Y-131550271D01*
X157497026Y-131547072D01*
X157497022Y-131547068D01*
X157328066Y-131413634D01*
X157328062Y-131413632D01*
X157324011Y-131410432D01*
X157300635Y-131397528D01*
X157250664Y-131347096D01*
X157235892Y-131277653D01*
X157261008Y-131211247D01*
X157288359Y-131184641D01*
X157446555Y-131071801D01*
X157446559Y-131071797D01*
X157450767Y-131068796D01*
X157610587Y-130909533D01*
X157742250Y-130726305D01*
X157842218Y-130524035D01*
X157907808Y-130308152D01*
X157929838Y-130140819D01*
X157936821Y-130087778D01*
X157936822Y-130087772D01*
X157937258Y-130084456D01*
X157938902Y-130017200D01*
X157920415Y-129792332D01*
X157865449Y-129573504D01*
X157775480Y-129366591D01*
X157727382Y-129292243D01*
X157655734Y-129181491D01*
X157655732Y-129181488D01*
X157652926Y-129177151D01*
X157501077Y-129010271D01*
X157497026Y-129007072D01*
X157497022Y-129007068D01*
X157328066Y-128873634D01*
X157328062Y-128873632D01*
X157324011Y-128870432D01*
X157126483Y-128761391D01*
X156913798Y-128686076D01*
X156863397Y-128677098D01*
X156696757Y-128647414D01*
X156696753Y-128647414D01*
X156691669Y-128646508D01*
X156619674Y-128645629D01*
X156471229Y-128643815D01*
X156471227Y-128643815D01*
X156466059Y-128643752D01*
X156243029Y-128677880D01*
X156028568Y-128747977D01*
X155828435Y-128852160D01*
X155824302Y-128855263D01*
X155824299Y-128855265D01*
X155799834Y-128873634D01*
X155648005Y-128987630D01*
X155644433Y-128991368D01*
X155508261Y-129133864D01*
X155492124Y-129150750D01*
X155489212Y-129155019D01*
X155489206Y-129155027D01*
X155395603Y-129292243D01*
X155340692Y-129337246D01*
X155270167Y-129345417D01*
X155206420Y-129314163D01*
X155185723Y-129289679D01*
X155115734Y-129181491D01*
X155115732Y-129181488D01*
X155112926Y-129177151D01*
X154961077Y-129010271D01*
X154957026Y-129007072D01*
X154957022Y-129007068D01*
X154788066Y-128873634D01*
X154788062Y-128873632D01*
X154784011Y-128870432D01*
X154586483Y-128761391D01*
X154373798Y-128686076D01*
X154323397Y-128677098D01*
X154156757Y-128647414D01*
X154156753Y-128647414D01*
X154151669Y-128646508D01*
X154079674Y-128645629D01*
X153931229Y-128643815D01*
X153931227Y-128643815D01*
X153926059Y-128643752D01*
X153703029Y-128677880D01*
X153488568Y-128747977D01*
X153288435Y-128852160D01*
X153284302Y-128855263D01*
X153284299Y-128855265D01*
X153259834Y-128873634D01*
X153108005Y-128987630D01*
X153104433Y-128991368D01*
X152968261Y-129133864D01*
X152952124Y-129150750D01*
X152949212Y-129155019D01*
X152949206Y-129155027D01*
X152855603Y-129292243D01*
X152800692Y-129337246D01*
X152730167Y-129345417D01*
X152666420Y-129314163D01*
X152645723Y-129289679D01*
X152575734Y-129181491D01*
X152575732Y-129181488D01*
X152572926Y-129177151D01*
X152421077Y-129010271D01*
X152417026Y-129007072D01*
X152417022Y-129007068D01*
X152248066Y-128873634D01*
X152248062Y-128873632D01*
X152244011Y-128870432D01*
X152180706Y-128835486D01*
X152130736Y-128785055D01*
X152115600Y-128725178D01*
X152115600Y-123021367D01*
X152116127Y-123010184D01*
X152117802Y-123002691D01*
X152115662Y-122934614D01*
X152115600Y-122930655D01*
X152115600Y-122902744D01*
X152115095Y-122898744D01*
X152114162Y-122886901D01*
X152113022Y-122850629D01*
X152112773Y-122842710D01*
X152107122Y-122823258D01*
X152103114Y-122803906D01*
X152101567Y-122791663D01*
X152100574Y-122783803D01*
X152097656Y-122776432D01*
X152084300Y-122742697D01*
X152080455Y-122731470D01*
X152075614Y-122714808D01*
X152068118Y-122689007D01*
X152063541Y-122681267D01*
X152057807Y-122671572D01*
X152049112Y-122653824D01*
X152041652Y-122634983D01*
X152015664Y-122599213D01*
X152009148Y-122589293D01*
X151990680Y-122558065D01*
X151990678Y-122558062D01*
X151986642Y-122551238D01*
X151972321Y-122536917D01*
X151959480Y-122521883D01*
X151952231Y-122511906D01*
X151947572Y-122505493D01*
X151913495Y-122477302D01*
X151904716Y-122469312D01*
X148734405Y-119299000D01*
X148700379Y-119236688D01*
X148697500Y-119209905D01*
X148697500Y-117258866D01*
X148690745Y-117196684D01*
X148639615Y-117060295D01*
X148552261Y-116943739D01*
X148435705Y-116856385D01*
X148299316Y-116805255D01*
X148237134Y-116798500D01*
X145640866Y-116798500D01*
X145578684Y-116805255D01*
X145442295Y-116856385D01*
X145325739Y-116943739D01*
X145238385Y-117060295D01*
X145187255Y-117196684D01*
X145180500Y-117258866D01*
X145180500Y-119355134D01*
X138036300Y-119355134D01*
X138036300Y-117989225D01*
X138036925Y-117976688D01*
X138128564Y-117060295D01*
X138179144Y-116554490D01*
X138184985Y-116527183D01*
X138706127Y-114963756D01*
X138713559Y-114946075D01*
X138719759Y-114933994D01*
X139655468Y-113110560D01*
X139667830Y-113091093D01*
X140732189Y-111712265D01*
X140739597Y-111703521D01*
X142016546Y-110328345D01*
X142026721Y-110318551D01*
X142359498Y-110032363D01*
X143236110Y-109278476D01*
X143250210Y-109267969D01*
X143522933Y-109092938D01*
X144866787Y-108230465D01*
X144886758Y-108220041D01*
X145885324Y-107807789D01*
X146924144Y-107378918D01*
X147570281Y-107112164D01*
X147583441Y-107107565D01*
X150148052Y-106367773D01*
X150165504Y-106364054D01*
X152617194Y-106020817D01*
X152634664Y-106019600D01*
X154256528Y-106019600D01*
X154270701Y-106020400D01*
G37*
G04 #@! TD.AperFunction*
G04 #@! TD*
M02*
